<svg width="512" height="512" viewBox="0 0 512 512" fill="none" xmlns="http://www.w3.org/2000/svg">
<path d="M57.2642 383H24.9489L118.415 128.455H150.233L243.699 383H211.384L135.318 168.724H133.33L57.2642 383ZM69.196 283.568H199.452V310.912H69.196V283.568ZM476.214 208H445.39C443.567 199.134 440.377 191.345 435.82 184.634C431.345 177.922 425.877 172.287 419.414 167.73C413.033 163.09 405.949 159.61 398.16 157.29C390.371 154.97 382.251 153.81 373.799 153.81C358.387 153.81 344.425 157.704 331.914 165.493C319.485 173.282 309.583 184.758 302.208 199.921C294.917 215.085 291.271 233.687 291.271 255.727C291.271 277.768 294.917 296.37 302.208 311.533C309.583 326.697 319.485 338.173 331.914 345.962C344.425 353.75 358.387 357.645 373.799 357.645C382.251 357.645 390.371 356.485 398.16 354.165C405.949 351.845 413.033 348.406 419.414 343.849C425.877 339.209 431.345 333.533 435.82 326.821C440.377 320.027 443.567 312.238 445.39 303.455H476.214C473.894 316.464 469.668 328.105 463.536 338.38C457.405 348.655 449.782 357.396 440.667 364.605C431.553 371.731 421.319 377.158 409.968 380.887C398.699 384.616 386.642 386.48 373.799 386.48C352.09 386.48 332.784 381.177 315.88 370.571C298.977 359.965 285.678 344.884 275.983 325.33C266.289 305.775 261.441 282.574 261.441 255.727C261.441 228.881 266.289 205.68 275.983 186.125C285.678 166.57 298.977 151.49 315.88 140.884C332.784 130.277 352.09 124.974 373.799 124.974C386.642 124.974 398.699 126.839 409.968 130.567C421.319 134.296 431.553 139.765 440.667 146.974C449.782 154.1 457.405 162.8 463.536 173.075C469.668 183.266 473.894 194.908 476.214 208Z" fill="black"/>
</svg>
