<svg width="24" height="24" viewBox="0 0 24 24" fill="none" xmlns="http://www.w3.org/2000/svg">
<g clip-path="url(#clip0_1_23)">
<path d="M8.90626 1C10.234 1 11.3125 2.07852 11.3125 3.40625V20.5937C11.3125 21.9215 10.234 23 8.90626 23C7.66445 23 6.64181 22.059 6.51287 20.8473C6.28945 20.9074 6.05311 20.9375 5.81252 20.9375C4.29571 20.9375 3.0625 19.7043 3.0625 18.1875C3.0625 17.8695 3.11836 17.5602 3.21719 17.2766C1.91953 16.7867 1 15.532 1 14.0625C1 12.6918 1.80352 11.5059 2.96797 10.9559C2.59414 10.4875 2.375 9.89453 2.375 9.25C2.375 7.93087 3.30313 6.83087 4.54063 6.56016C4.47187 6.32382 4.4375 6.07032 4.4375 5.81252C4.4375 4.52774 5.32263 3.44492 6.51287 3.14414C6.64181 1.94102 7.66445 1 8.90626 1ZM15.0937 1C16.3356 1 17.3539 1.94102 17.4871 3.14414C18.6817 3.44492 19.5625 4.52344 19.5625 5.81252C19.5625 6.07032 19.5281 6.32382 19.4594 6.56016C20.6969 6.82658 21.625 7.93087 21.625 9.25C21.625 9.89453 21.4059 10.4875 21.0321 10.9559C22.1965 11.5059 23 12.6918 23 14.0625C23 15.532 22.0805 16.7867 20.7828 17.2766C20.8817 17.5602 20.9375 17.8695 20.9375 18.1875C20.9375 19.7043 19.7043 20.9375 18.1875 20.9375C17.9469 20.9375 17.7106 20.9074 17.4871 20.8473C17.3582 22.059 16.3356 23 15.0937 23C13.766 23 12.6875 21.9215 12.6875 20.5937V3.40625C12.6875 2.07852 13.766 1 15.0937 1Z" stroke="black"/>
</g>
<defs>
<clipPath id="clip0_1_23">
<rect width="24" height="24" fill="white"/>
</clipPath>
</defs>
</svg>
