<svg width="24" height="24" viewBox="0 0 24 24" fill="none" xmlns="http://www.w3.org/2000/svg">
<g clip-path="url(#clip0_1_25)">
<path d="M2.28949 6.70582C1.92647 6.34281 1.90077 5.76885 2.21239 5.37597L2.29418 5.29418C2.68485 4.9035 3.31983 4.9035 3.71051 5.29418L6.71051 8.29418C6.72773 8.3114 6.74396 8.32999 6.7735 8.36446L7.03051 8.6643L7.38173 8.48374C7.97741 8.17751 8.65851 8.00469 9.37969 8.00469H14.625C15.3455 8.00469 16.0224 8.17718 16.6242 8.48439L16.9749 8.66342L17.2312 8.36446C17.2607 8.32998 17.277 8.3114 17.2942 8.29418L20.2942 5.29418C20.6849 4.9035 21.3198 4.9035 21.7105 5.29418C22.1012 5.68485 22.1012 6.31983 21.7105 6.71051L18.7105 9.71051C18.6933 9.72773 18.6747 9.74396 18.6402 9.7735L18.3398 10.031L18.5214 10.3826C18.7818 10.8867 18.9452 11.4442 18.9872 12.0398L19.0199 12.5047H19.4859H22.5C23.0535 12.5047 23.5 12.9511 23.5 13.5047C23.5 14.0582 23.0535 14.5047 22.5 14.5047H19.5H19V15.0047C19 16.0823 18.7593 17.0965 18.3267 18.0054L18.1302 18.4182L18.5238 18.6508C18.5859 18.6875 18.6432 18.7331 18.6964 18.7892L18.6963 18.7893L18.7058 18.7989L21.7058 21.7989C22.0965 22.1895 22.0965 22.8245 21.7058 23.2152C21.3151 23.6059 20.6802 23.6059 20.2895 23.2152L17.3317 20.2574L16.9981 19.9238L16.6458 20.2374C15.7052 21.0743 14.5364 21.6615 13.2453 21.8934V11.25C13.2453 10.5614 12.684 10 11.9953 10C11.3067 10 10.7453 10.5614 10.7453 11.25V21.8887C9.45427 21.6568 8.28545 21.0696 7.34487 20.2327L6.99248 19.9192L6.65895 20.2527L3.70582 23.2058C3.31515 23.5965 2.68017 23.5965 2.28949 23.2058C1.89882 22.8151 1.89882 22.1802 2.28949 21.7895L5.28949 18.7895C5.34689 18.7321 5.41147 18.6823 5.49454 18.627L5.85392 18.3874L5.6691 17.997C5.24081 17.0923 5 16.0778 5 15V14.5H4.5H1.5C0.946455 14.5 0.5 14.0535 0.5 13.5C0.5 12.9465 0.946455 12.5 1.5 12.5H4.51406H4.97657L5.01255 12.0389C5.05889 11.4449 5.2232 10.8804 5.48009 10.375L5.65821 10.0246L5.35977 9.76881C5.3253 9.73926 5.30671 9.72304 5.28949 9.70582L2.28949 6.70582ZM12 0.5C14.2082 0.5 16 2.29177 16 4.5V4.66875C16 5.12855 15.6285 5.5 15.1688 5.5H8.83125C8.37145 5.5 8 5.12855 8 4.66875V4.5C8 2.29177 9.79177 0.5 12 0.5Z" stroke="black"/>
</g>
<defs>
<clipPath id="clip0_1_25">
<rect width="24" height="24" fill="white"/>
</clipPath>
</defs>
</svg>
