<svg width="100" height="153" viewBox="0 0 100 153" fill="none" xmlns="http://www.w3.org/2000/svg">
<rect width="100" height="153" fill="#1E1E1E"/>
<path d="M55.3661 141.844C38.8424 138.41 22.7482 138.626 7.51276 142.274V34.7645C7.51276 33.6913 6.43951 32.618 5.36625 32.618C4.7226 32.618 4.07895 33.0476 3.64935 33.4758C3.4353 33.6898 3.0057 33.9053 2.5761 34.3335C1.50285 35.1912 0.859199 35.6208 0.4296 36.0504C5.48164e-07 36.48 0 36.9081 0 37.3377V150.855C0 151.499 0.429598 152.143 0.857703 152.572C1.2873 153.002 1.71541 153.002 2.14501 153.002C2.35906 153.002 2.57461 153.002 2.78866 152.788C22.5308 146.993 37.9812 144.848 54.9338 145.706C56.007 145.706 56.8647 145.063 57.0803 143.989C57.0833 142.918 56.2241 142.06 55.3663 141.844L55.3661 141.844Z" fill="#A0A0A0"/>
<path d="M63.3059 133.69C48.0693 126.822 34.9794 124.247 20.1735 125.321V20.6014C20.1735 19.7437 19.7439 19.0985 19.1002 18.6704C18.2425 18.2408 17.3833 18.4564 16.7397 19.1C15.6664 20.1733 14.5932 21.031 13.5215 22.1042C13.0919 22.5338 12.8778 23.1774 12.8778 23.607V133.477C12.8778 134.12 13.3074 134.55 13.5215 135.193C13.9511 135.623 14.5947 135.623 15.2384 135.623C30.6888 132.833 46.1395 133.692 62.0187 137.984H62.4483C63.306 137.984 64.1652 137.554 64.3793 136.696C64.8089 135.192 64.3793 134.119 63.306 133.691L63.3059 133.69Z" fill="#494949"/>
<path d="M27.8988 0C26.6115 0 25.5382 1.07325 25.5382 2.1465V117.381C25.5382 117.81 25.7523 118.454 26.1819 118.884C26.6115 119.313 27.2551 119.527 27.6847 119.527H27.8988C50.2152 119.527 75.3229 130.471 96.7818 149.569C97.2114 149.999 97.6395 149.999 98.0691 149.999C98.4987 149.999 98.7128 149.999 98.9268 149.784C99.7845 149.355 100 148.711 100 147.854V32.4047C100 31.761 99.5704 31.3314 99.3564 30.9018C77.2537 11.3754 51.2885 0.000654873 27.8983 0.000654873L27.8988 0Z" fill="#0B0B0B"/>
</svg>
