<svg width="16" height="16" viewBox="0 0 16 16" fill="none" xmlns="http://www.w3.org/2000/svg">
<path d="M1.5 7.4L1.49301 6.90005V7.89995L1.5 7.4ZM1.5 7.4L1.49303 7.89995L1.49309 7.89995L1.49331 7.89996L1.49415 7.89997L1.49742 7.90001L1.51009 7.90019L1.55796 7.90082L1.72855 7.90292C1.86961 7.90456 2.05795 7.90654 2.2465 7.90786C2.43452 7.90917 2.62487 7.90985 2.76912 7.90884C2.84047 7.90834 2.90476 7.90741 2.95302 7.90572C2.97563 7.90493 3.00307 7.90371 3.02843 7.9014C3.03827 7.90051 3.06458 7.89806 3.09508 7.89187L3.09519 7.89185C3.10648 7.88956 3.14716 7.88131 3.19511 7.86085C3.21719 7.85143 3.27186 7.8267 3.32881 7.77692C3.38432 7.72839 3.5 7.60265 3.5 7.4C3.5 7.19735 3.38432 7.07161 3.32881 7.02308C3.27186 6.9733 3.21719 6.94857 3.19511 6.93915C3.14716 6.91869 3.10648 6.91044 3.09519 6.90815L3.09508 6.90813C3.06458 6.90195 3.03827 6.89949 3.02843 6.8986C3.00307 6.89629 2.97563 6.89507 2.95302 6.89428C2.90476 6.89259 2.84047 6.89166 2.76912 6.89116C2.62487 6.89015 2.43452 6.89083 2.2465 6.89214C2.05795 6.89346 1.86961 6.89544 1.72855 6.89708L1.55796 6.89918L1.51009 6.89982L1.49742 6.89999L1.49415 6.90003L1.49331 6.90004L1.49309 6.90005L1.49303 6.90005L1.5 7.4ZM7 1.7H6.02213L6.59467 2.49275L9.19467 6.09275L9.34435 6.3H9.60001H12.51C12.6416 6.3 12.7722 6.32389 12.8969 6.37065C12.8969 6.37065 12.8969 6.37066 12.8969 6.37066L15.4483 7.32774C15.4484 7.32777 15.4485 7.32781 15.4486 7.32785C15.481 7.34023 15.5 7.37034 15.5 7.4C15.5 7.42966 15.481 7.45977 15.4486 7.47215C15.4485 7.47219 15.4484 7.47223 15.4483 7.47226L12.8969 8.42934C12.8969 8.42934 12.8969 8.42935 12.8969 8.42935C12.7722 8.47611 12.6416 8.5 12.51 8.5H9.60001H9.34435L9.19467 8.70725L6.59467 12.3073L6.02213 13.1H7H7.4C7.45636 13.1 7.5 13.1436 7.5 13.2C7.5 13.2564 7.45636 13.3 7.4 13.3H4.6C4.54365 13.3 4.50001 13.2564 4.50001 13.2C4.50001 13.1436 4.54365 13.1 4.6 13.1H4.8H5.3V12.6V9V8.5H4.8H4.00001H3.7929L3.64645 8.64645L2.28145 10.0114C2.22403 10.0689 2.14823 10.1 2.07001 10.1H1.60001C1.43365 10.1 1.30001 9.96636 1.30001 9.8V7.94V7.44H0.800006C0.74379 7.44 0.7125 7.43096 0.698645 7.42553C0.691517 7.42274 0.68755 7.42036 0.685776 7.41918C0.683996 7.41799 0.683385 7.41734 0.683371 7.41732L0.683006 7.41683C0.682757 7.41643 0.682225 7.41549 0.681609 7.41386C0.680193 7.41012 0.679193 7.40498 0.679193 7.4C0.679193 7.39502 0.680193 7.38988 0.681609 7.38614C0.682225 7.38451 0.682757 7.38357 0.683006 7.38317L0.683371 7.38268C0.683385 7.38266 0.683996 7.38201 0.685776 7.38082C0.68755 7.37964 0.691517 7.37726 0.698645 7.37447C0.7125 7.36904 0.74379 7.36 0.800006 7.36H1.30001V6.86V5C1.30001 4.83364 1.43365 4.7 1.60001 4.7H2.06751C2.14573 4.7 2.22153 4.73113 2.27895 4.78855L2.27928 4.78888L3.64678 6.15388L3.79317 6.3H4.00001H4.8H5.3V5.8V2.2V1.7H4.8H4.6C4.54365 1.7 4.50001 1.65636 4.50001 1.6C4.50001 1.54364 4.54365 1.5 4.6 1.5H7.4C7.45636 1.5 7.5 1.54364 7.5 1.6C7.5 1.65636 7.45636 1.7 7.4 1.7H7Z" stroke="black"/>
</svg>
