<svg width="15" height="15" viewBox="0 0 15 15" fill="none" xmlns="http://www.w3.org/2000/svg"><path d="M4.62471 4.00001L4.56402 4.00001C4.04134 3.99993 3.70687 3.99988 3.4182 4.055C2.2379 4.28039 1.29846 5.17053 1.05815 6.33035C0.999538 6.61321 0.999604 6.93956 0.999703 7.44832L0.999711 7.50001L0.999703 7.5517C0.999604 8.06046 0.999538 8.38681 1.05815 8.66967C1.29846 9.82949 2.2379 10.7196 3.4182 10.945C3.70687 11.0001 4.04134 11.0001 4.56402 11L4.62471 11H5.49971C5.77585 11 5.99971 10.7762 5.99971 10.5C5.99971 10.2239 5.77585 10 5.49971 10H4.62471C4.02084 10 3.78907 9.99777 3.60577 9.96277C2.80262 9.8094 2.18169 9.20399 2.02352 8.41279C1.98713 8.2331 1.98471 8.00777 1.98471 7.41667V7.58335C1.98471 6.99225 1.98713 6.76692 2.02352 6.58723C2.18169 5.79603 2.80262 5.19062 3.60577 5.03725C3.78907 5.00225 4.02084 5.00001 4.62471 5.00001H5.49971C5.77585 5.00001 5.99971 4.77615 5.99971 4.50001C5.99971 4.22387 5.77585 4.00001 5.49971 4.00001H4.62471ZM10.3747 4.00001H9.49971C9.22357 4.00001 8.99971 4.22387 8.99971 4.50001C8.99971 4.77615 9.22357 5.00001 9.49971 5.00001H10.3747C10.9786 5.00001 11.2104 5.00225 11.3937 5.03725C12.1968 5.19062 12.8177 5.79603 12.9759 6.58723C13.0123 6.76692 13.0147 6.99225 13.0147 7.58335V7.41667C13.0147 8.00777 13.0123 8.2331 12.9759 8.41279C12.8177 9.20399 12.1968 9.8094 11.3937 9.96277C11.2104 9.99777 10.9786 10 10.3747 10H9.49971C9.22357 10 8.99971 10.2239 8.99971 10.5C8.99971 10.7762 9.22357 11 9.49971 11H10.3747L10.4354 11C10.9581 11.0001 11.2926 11.0001 11.5765 10.945C12.7568 10.7196 13.6963 9.82949 13.9366 8.66967C13.9952 8.38681 13.995 8.06046 13.995 7.5517L13.9949 7.50001L13.995 7.44832C13.995 6.93956 13.9952 6.61321 13.9366 6.33035C13.6963 5.17053 12.7568 4.28039 11.5765 4.055C11.2926 3.99988 10.9581 3.99993 10.4354 4.00001L10.3747 4.00001ZM4.99971 7.50001C4.99971 7.22387 5.22357 7.00001 5.49971 7.00001H9.49971C9.77585 7.00001 9.99971 7.22387 9.99971 7.50001C9.99971 7.77615 9.77585 8.00001 9.49971 8.00001H5.49971C5.22357 8.00001 4.99971 7.77615 4.99971 7.50001Z" fill="currentColor" fill-rule="evenodd" clip-rule="evenodd"></path></svg>
