<svg width="24" height="24" viewBox="0 0 24 24" fill="none" xmlns="http://www.w3.org/2000/svg">
<path d="M3.56477 15.4209C4.99843 16.6223 7.27785 18.1665 9.27535 17.8737C9.48507 17.8437 9.69136 17.7905 9.8942 17.7239C9.5779 17.3146 9.29942 16.9118 9.0622 16.5458C8.30927 15.3809 8.07204 14.043 8.17174 12.765C7.46351 12.9015 6.82403 13.1977 6.29113 13.6104C6.06766 13.7834 5.73074 13.6536 5.78231 13.3774C6.00234 12.2625 6.91686 11.3506 8.12705 11.1709C8.21644 11.1575 8.30927 11.1476 8.39865 11.1442L9.06563 6.77442C9.13439 6.31514 9.34068 5.68613 9.92514 5.24682C10.5646 4.7709 11.6751 4.23174 13.487 4.07199C13.4594 4.0487 13.4319 4.0254 13.4044 4.0021C12.71 3.48292 10.9153 2.61761 7.04063 3.18671C3.16596 3.75582 1.70479 5.09705 1.19596 5.79263C0.999992 6.05888 0.972488 6.39501 1.02062 6.72117L1.85263 12.1893C2.04172 13.4306 2.5918 14.6055 3.56477 15.4242V15.4209ZM6.57993 8.11232C6.7312 8.00915 6.95124 8.04576 6.98562 8.22215C6.98906 8.23879 6.9925 8.25876 6.99593 8.2754C7.10595 9.00093 6.59712 9.67321 5.85794 9.78303C5.11876 9.89286 4.43116 9.39032 4.32114 8.66812C4.3177 8.65147 4.3177 8.63151 4.31426 8.61487C4.29363 8.43515 4.49304 8.3353 4.66838 8.39188C4.9778 8.49173 5.31473 8.52168 5.6551 8.47176C5.99546 8.42183 6.31176 8.29537 6.57649 8.11232H6.57993ZM9.99391 15.98C11.0047 17.5409 12.7271 19.6709 14.7246 19.9637C16.7221 20.2566 19.005 18.7157 20.4352 17.5109C21.4082 16.6955 21.9583 15.5207 22.1474 14.276L22.9794 8.8079C23.0275 8.48174 23 8.1456 22.804 7.87935C22.2952 7.18378 20.834 5.84255 16.9594 5.27344C13.0847 4.70433 11.2935 5.56964 10.599 6.08883C10.3308 6.28852 10.2036 6.60136 10.1555 6.92751L9.32349 12.3956C9.13439 13.637 9.30974 14.9183 9.99734 15.98H9.99391ZM14.9069 10.8314C14.6421 10.6483 14.3293 10.5219 13.9855 10.472C13.6417 10.422 13.3047 10.452 12.9988 10.5518C12.8234 10.6084 12.624 10.5086 12.6446 10.3288C12.6481 10.3122 12.6481 10.2922 12.6515 10.2756C12.7615 9.55006 13.4491 9.05085 14.1883 9.16068C14.9275 9.2705 15.4363 9.94278 15.3263 10.6683C15.3229 10.685 15.3194 10.7049 15.316 10.7216C15.2816 10.898 15.0616 10.9346 14.9103 10.8314H14.9069ZM19.5895 11.3472C19.5551 11.5236 19.3351 11.5602 19.1838 11.4571C18.9191 11.274 18.6062 11.1476 18.2624 11.0976C17.9186 11.0477 17.5817 11.0777 17.2757 11.1775C17.1003 11.2341 16.9009 11.1342 16.9216 10.9545C16.925 10.9379 16.925 10.9179 16.9284 10.9013C17.0384 10.1757 17.7261 9.67653 18.4652 9.78636C19.2044 9.89619 19.7132 10.5685 19.6032 11.294C19.5998 11.3106 19.5963 11.3306 19.5929 11.3472H19.5895ZM19.2216 14.6554C18.5477 16.1431 16.925 17.0683 15.206 16.8153C13.487 16.5624 12.2114 15.2112 12.0086 13.597C11.9742 13.3208 12.3146 13.1943 12.5312 13.3741C13.3529 14.0663 14.374 14.5489 15.5223 14.7153C16.6706 14.8817 17.7948 14.7186 18.785 14.2893C19.0463 14.1761 19.3351 14.3958 19.2182 14.6521L19.2216 14.6554Z" stroke="black"/>
</svg>
