<svg viewBox="0 0 24 24" fill="none" xmlns="http://www.w3.org/2000/svg" stroke="currentColor" stroke-width="1.5">
	<path d="M14.8409 12.9623L15.4851 13.9892L16.1165 12.9544L17.9208 9.99701C17.9211 9.99656 17.9214 9.99612 17.9217 9.99567C17.9417 9.96439 17.973 9.95 18 9.95C18.026 9.95 18.056 9.96329 18.0763 9.99607C18.0764 9.9962 18.0764 9.99634 18.0765 9.99647L23.0243 18.1041C23.0246 18.1045 23.0248 18.1049 23.0251 18.1054C23.1723 18.3495 23.25 18.6276 23.25 18.9088C23.25 19.7591 22.5612 20.45 21.7088 20.45H17.1038H14.2913H2.09625C1.35171 20.45 0.75 19.8483 0.75 19.1038C0.75 18.8528 0.82176 18.6048 0.957294 18.3894L0.957899 18.3885L9.07897 5.43822C9.07916 5.43793 9.07935 5.43763 9.07953 5.43734C9.19387 5.25711 9.38966 5.15 9.6 5.15C9.8139 5.15 10.0099 5.25986 10.1183 5.43392L10.1197 5.43605L14.8409 12.9623ZM22.591 6.59099C22.169 7.01295 21.5967 7.25 21 7.25C20.4033 7.25 19.831 7.01295 19.409 6.59099C18.9871 6.16903 18.75 5.59674 18.75 5C18.75 4.40326 18.9871 3.83097 19.409 3.40901C19.831 2.98705 20.4033 2.75 21 2.75C21.5967 2.75 22.169 2.98705 22.591 3.40901C23.0129 3.83097 23.25 4.40326 23.25 5C23.25 5.59674 23.0129 6.16903 22.591 6.59099Z" />
</svg>
