<?xml version="1.0" encoding="UTF-8"?>
<svg xmlns="http://www.w3.org/2000/svg" xmlns:xlink="http://www.w3.org/1999/xlink" width="0" height="0">
<symbol id="accessibility" viewBox="0 0 15 15" fill="none"><path d="M0.877197 7.49984C0.877197 3.84216 3.84234 0.877014 7.50003 0.877014C11.1577 0.877014 14.1229 3.84216 14.1229 7.49984C14.1229 11.1575 11.1577 14.1227 7.50003 14.1227C3.84234 14.1227 0.877197 11.1575 0.877197 7.49984ZM7.50003 1.82701C4.36702 1.82701 1.8272 4.36683 1.8272 7.49984C1.8272 10.6328 4.36702 13.1727 7.50003 13.1727C10.633 13.1727 13.1729 10.6328 13.1729 7.49984C13.1729 4.36683 10.633 1.82701 7.50003 1.82701ZM7.12457 9.00001C7.06994 9.12735 6.33165 11.9592 6.33165 11.9592C6.26018 12.226 5.98601 12.3843 5.71928 12.3128C5.45255 12.2413 5.29425 11.9672 5.36573 11.7004C5.36573 11.7004 6.24661 8.87268 6.24661 8.27007V6.80099L4.28763 6.27608C4.0209 6.20461 3.86261 5.93045 3.93408 5.66371C4.00555 5.39698 4.27972 5.23869 4.54645 5.31016C4.54645 5.31016 6.20042 5.87268 6.84579 5.87268H8.15505C8.80042 5.87268 10.4534 5.31042 10.4534 5.31042C10.7202 5.23895 10.9943 5.39724 11.0658 5.66397C11.1373 5.93071 10.979 6.20487 10.7122 6.27635L8.74661 6.80303V8.27007C8.74661 8.87268 9.62663 11.6971 9.62663 11.6971C9.6981 11.9639 9.5398 12.238 9.27307 12.3095C9.00634 12.381 8.73217 12.2227 8.6607 11.956C8.6607 11.956 7.91994 9.12735 7.86866 9.00001C7.81994 8.87268 7.65006 8.87268 7.65006 8.87268H7.34317C7.34317 8.87268 7.16994 8.87268 7.12457 9.00001ZM7.50043 5.12007C8.12175 5.12007 8.62543 4.61639 8.62543 3.99507C8.62543 3.37375 8.12175 2.87007 7.50043 2.87007C6.87911 2.87007 6.37543 3.37375 6.37543 3.99507C6.37543 4.61639 6.87911 5.12007 7.50043 5.12007Z" fill="currentColor" fill-rule="evenodd" clip-rule="evenodd"></path></symbol>

<symbol id="arrow-path" viewBox="0 0 15 15" fill="none"><path d="M1.90321 7.29677C1.90321 10.341 4.11041 12.4147 6.58893 12.8439C6.87255 12.893 7.06266 13.1627 7.01355 13.4464C6.96444 13.73 6.69471 13.9201 6.41109 13.871C3.49942 13.3668 0.86084 10.9127 0.86084 7.29677C0.860839 5.76009 1.55996 4.55245 2.37639 3.63377C2.96124 2.97568 3.63034 2.44135 4.16846 2.03202L2.53205 2.03202C2.25591 2.03202 2.03205 1.80816 2.03205 1.53202C2.03205 1.25588 2.25591 1.03202 2.53205 1.03202L5.53205 1.03202C5.80819 1.03202 6.03205 1.25588 6.03205 1.53202L6.03205 4.53202C6.03205 4.80816 5.80819 5.03202 5.53205 5.03202C5.25591 5.03202 5.03205 4.80816 5.03205 4.53202L5.03205 2.68645L5.03054 2.68759L5.03045 2.68766L5.03044 2.68767L5.03043 2.68767C4.45896 3.11868 3.76059 3.64538 3.15554 4.3262C2.44102 5.13021 1.90321 6.10154 1.90321 7.29677ZM13.0109 7.70321C13.0109 4.69115 10.8505 2.6296 8.40384 2.17029C8.12093 2.11718 7.93465 1.84479 7.98776 1.56188C8.04087 1.27898 8.31326 1.0927 8.59616 1.14581C11.4704 1.68541 14.0532 4.12605 14.0532 7.70321C14.0532 9.23988 13.3541 10.4475 12.5377 11.3662C11.9528 12.0243 11.2837 12.5586 10.7456 12.968L12.3821 12.968C12.6582 12.968 12.8821 13.1918 12.8821 13.468C12.8821 13.7441 12.6582 13.968 12.3821 13.968L9.38205 13.968C9.10591 13.968 8.88205 13.7441 8.88205 13.468L8.88205 10.468C8.88205 10.1918 9.10591 9.96796 9.38205 9.96796C9.65819 9.96796 9.88205 10.1918 9.88205 10.468L9.88205 12.3135L9.88362 12.3123C10.4551 11.8813 11.1535 11.3546 11.7585 10.6738C12.4731 9.86976 13.0109 8.89844 13.0109 7.70321Z" fill="currentColor" fill-rule="evenodd" clip-rule="evenodd"></path></symbol>

<symbol id="avatar" viewBox="0 0 15 15" fill="none">
  <path
    fill-rule="evenodd"
    clip-rule="evenodd"
    d="M0.877014 7.49988C0.877014 3.84219 3.84216 0.877045 7.49985 0.877045C11.1575 0.877045 14.1227 3.84219 14.1227 7.49988C14.1227 11.1575 11.1575 14.1227 7.49985 14.1227C3.84216 14.1227 0.877014 11.1575 0.877014 7.49988ZM7.49985 1.82704C4.36683 1.82704 1.82701 4.36686 1.82701 7.49988C1.82701 8.97196 2.38774 10.3131 3.30727 11.3213C4.19074 9.94119 5.73818 9.02499 7.50023 9.02499C9.26206 9.02499 10.8093 9.94097 11.6929 11.3208C12.6121 10.3127 13.1727 8.97172 13.1727 7.49988C13.1727 4.36686 10.6328 1.82704 7.49985 1.82704ZM10.9818 11.9787C10.2839 10.7795 8.9857 9.97499 7.50023 9.97499C6.01458 9.97499 4.71624 10.7797 4.01845 11.9791C4.97952 12.7272 6.18765 13.1727 7.49985 13.1727C8.81227 13.1727 10.0206 12.727 10.9818 11.9787ZM5.14999 6.50487C5.14999 5.207 6.20212 4.15487 7.49999 4.15487C8.79786 4.15487 9.84999 5.207 9.84999 6.50487C9.84999 7.80274 8.79786 8.85487 7.49999 8.85487C6.20212 8.85487 5.14999 7.80274 5.14999 6.50487ZM7.49999 5.10487C6.72679 5.10487 6.09999 5.73167 6.09999 6.50487C6.09999 7.27807 6.72679 7.90487 7.49999 7.90487C8.27319 7.90487 8.89999 7.27807 8.89999 6.50487C8.89999 5.73167 8.27319 5.10487 7.49999 5.10487Z"
    fill="currentColor"
  />
</symbol>

<symbol id="bars-3" fill="none" viewBox="0 0 24 24" stroke-width="1.5" stroke="currentColor" class="w-6 h-6">
  <path stroke-linecap="round" stroke-linejoin="round" d="M3.75 6.75h16.5M3.75 12h16.5m-16.5 5.25h16.5" />
</symbol>

<symbol id="beaker" fill="none" viewBox="0 0 24 24" stroke-width="1.5" stroke="currentColor" class="w-6 h-6">
  <path stroke-linecap="round" stroke-linejoin="round" d="M9.75 3.104v5.714a2.25 2.25 0 01-.659 1.591L5 14.5M9.75 3.104c-.251.023-.501.05-.75.082m.75-.082a24.301 24.301 0 014.5 0m0 0v5.714c0 .597.237 1.17.659 1.591L19.8 15.3M14.25 3.104c.251.023.501.05.75.082M19.8 15.3l-1.57.393A9.065 9.065 0 0112 15a9.065 9.065 0 00-6.23-.693L5 14.5m14.8.8l1.402 1.402c1.232 1.232.65 3.318-1.067 3.611A48.309 48.309 0 0112 21c-2.773 0-5.491-.235-8.135-.687-1.718-.293-2.3-2.379-1.067-3.61L5 14.5" />
</symbol>

<symbol id="bell" viewBox="0 0 15 15" fill="none">
	<path d="M8.60124 1.25086C8.60124 1.75459 8.26278 2.17927 7.80087 2.30989C10.1459 2.4647 12 4.41582 12 6.79999V10.25C12 11.0563 12.0329 11.7074 12.7236 12.0528C12.931 12.1565 13.0399 12.3892 12.9866 12.6149C12.9333 12.8406 12.7319 13 12.5 13H8.16144C8.36904 13.1832 8.49997 13.4513 8.49997 13.75C8.49997 14.3023 8.05226 14.75 7.49997 14.75C6.94769 14.75 6.49997 14.3023 6.49997 13.75C6.49997 13.4513 6.63091 13.1832 6.83851 13H2.49999C2.2681 13 2.06664 12.8406 2.01336 12.6149C1.96009 12.3892 2.06897 12.1565 2.27638 12.0528C2.96708 11.7074 2.99999 11.0563 2.99999 10.25V6.79999C2.99999 4.41537 4.85481 2.46396 7.20042 2.3098C6.73867 2.17908 6.40036 1.75448 6.40036 1.25086C6.40036 0.643104 6.89304 0.150421 7.5008 0.150421C8.10855 0.150421 8.60124 0.643104 8.60124 1.25086ZM7.49999 3.29999C5.56699 3.29999 3.99999 4.86699 3.99999 6.79999V10.25L4.00002 10.3009C4.0005 10.7463 4.00121 11.4084 3.69929 12H11.3007C10.9988 11.4084 10.9995 10.7463 11 10.3009L11 10.25V6.79999C11 4.86699 9.43299 3.29999 7.49999 3.29999Z" fill="currentColor" fill-rule="evenodd" clip-rule="evenodd"></path>
</symbol>

<symbol id="bolt" viewBox="0 0 15 15" fill="none"><path d="M8.69667 0.0403541C8.90859 0.131038 9.03106 0.354857 8.99316 0.582235L8.0902 6.00001H12.5C12.6893 6.00001 12.8625 6.10701 12.9472 6.27641C13.0319 6.4458 13.0136 6.6485 12.8999 6.80001L6.89997 14.8C6.76167 14.9844 6.51521 15.0503 6.30328 14.9597C6.09135 14.869 5.96888 14.6452 6.00678 14.4178L6.90974 9H2.49999C2.31061 9 2.13748 8.893 2.05278 8.72361C1.96809 8.55422 1.98636 8.35151 2.09999 8.2L8.09997 0.200038C8.23828 0.0156255 8.48474 -0.0503301 8.69667 0.0403541ZM3.49999 8.00001H7.49997C7.64695 8.00001 7.78648 8.06467 7.88148 8.17682C7.97648 8.28896 8.01733 8.43723 7.99317 8.5822L7.33027 12.5596L11.5 7.00001H7.49997C7.353 7.00001 7.21347 6.93534 7.11846 6.8232C7.02346 6.71105 6.98261 6.56279 7.00678 6.41781L7.66968 2.44042L3.49999 8.00001Z" fill="currentColor" fill-rule="evenodd" clip-rule="evenodd"></path></symbol>

<symbol id="brain" viewBox="0 0 24 24" fill="none">
<g clip-path="url(#clip0_1_23)">
<path d="M8.90626 1C10.234 1 11.3125 2.07852 11.3125 3.40625V20.5937C11.3125 21.9215 10.234 23 8.90626 23C7.66445 23 6.64181 22.059 6.51287 20.8473C6.28945 20.9074 6.05311 20.9375 5.81252 20.9375C4.29571 20.9375 3.0625 19.7043 3.0625 18.1875C3.0625 17.8695 3.11836 17.5602 3.21719 17.2766C1.91953 16.7867 1 15.532 1 14.0625C1 12.6918 1.80352 11.5059 2.96797 10.9559C2.59414 10.4875 2.375 9.89453 2.375 9.25C2.375 7.93087 3.30313 6.83087 4.54063 6.56016C4.47187 6.32382 4.4375 6.07032 4.4375 5.81252C4.4375 4.52774 5.32263 3.44492 6.51287 3.14414C6.64181 1.94102 7.66445 1 8.90626 1ZM15.0937 1C16.3356 1 17.3539 1.94102 17.4871 3.14414C18.6817 3.44492 19.5625 4.52344 19.5625 5.81252C19.5625 6.07032 19.5281 6.32382 19.4594 6.56016C20.6969 6.82658 21.625 7.93087 21.625 9.25C21.625 9.89453 21.4059 10.4875 21.0321 10.9559C22.1965 11.5059 23 12.6918 23 14.0625C23 15.532 22.0805 16.7867 20.7828 17.2766C20.8817 17.5602 20.9375 17.8695 20.9375 18.1875C20.9375 19.7043 19.7043 20.9375 18.1875 20.9375C17.9469 20.9375 17.7106 20.9074 17.4871 20.8473C17.3582 22.059 16.3356 23 15.0937 23C13.766 23 12.6875 21.9215 12.6875 20.5937V3.40625C12.6875 2.07852 13.766 1 15.0937 1Z" stroke="currentColor"/>
</g>
<defs>
<clipPath>
<rect fill="currentColor"/>
</clipPath>
</defs>
</symbol>

<symbol id="bug" viewBox="0 0 24 24" fill="none">
<g clip-path="url(#clip0_1_25)">
<path d="M2.28949 6.70582C1.92647 6.34281 1.90077 5.76885 2.21239 5.37597L2.29418 5.29418C2.68485 4.9035 3.31983 4.9035 3.71051 5.29418L6.71051 8.29418C6.72773 8.3114 6.74396 8.32999 6.7735 8.36446L7.03051 8.6643L7.38173 8.48374C7.97741 8.17751 8.65851 8.00469 9.37969 8.00469H14.625C15.3455 8.00469 16.0224 8.17718 16.6242 8.48439L16.9749 8.66342L17.2312 8.36446C17.2607 8.32998 17.277 8.3114 17.2942 8.29418L20.2942 5.29418C20.6849 4.9035 21.3198 4.9035 21.7105 5.29418C22.1012 5.68485 22.1012 6.31983 21.7105 6.71051L18.7105 9.71051C18.6933 9.72773 18.6747 9.74396 18.6402 9.7735L18.3398 10.031L18.5214 10.3826C18.7818 10.8867 18.9452 11.4442 18.9872 12.0398L19.0199 12.5047H19.4859H22.5C23.0535 12.5047 23.5 12.9511 23.5 13.5047C23.5 14.0582 23.0535 14.5047 22.5 14.5047H19.5H19V15.0047C19 16.0823 18.7593 17.0965 18.3267 18.0054L18.1302 18.4182L18.5238 18.6508C18.5859 18.6875 18.6432 18.7331 18.6964 18.7892L18.6963 18.7893L18.7058 18.7989L21.7058 21.7989C22.0965 22.1895 22.0965 22.8245 21.7058 23.2152C21.3151 23.6059 20.6802 23.6059 20.2895 23.2152L17.3317 20.2574L16.9981 19.9238L16.6458 20.2374C15.7052 21.0743 14.5364 21.6615 13.2453 21.8934V11.25C13.2453 10.5614 12.684 10 11.9953 10C11.3067 10 10.7453 10.5614 10.7453 11.25V21.8887C9.45427 21.6568 8.28545 21.0696 7.34487 20.2327L6.99248 19.9192L6.65895 20.2527L3.70582 23.2058C3.31515 23.5965 2.68017 23.5965 2.28949 23.2058C1.89882 22.8151 1.89882 22.1802 2.28949 21.7895L5.28949 18.7895C5.34689 18.7321 5.41147 18.6823 5.49454 18.627L5.85392 18.3874L5.6691 17.997C5.24081 17.0923 5 16.0778 5 15V14.5H4.5H1.5C0.946455 14.5 0.5 14.0535 0.5 13.5C0.5 12.9465 0.946455 12.5 1.5 12.5H4.51406H4.97657L5.01255 12.0389C5.05889 11.4449 5.2232 10.8804 5.48009 10.375L5.65821 10.0246L5.35977 9.76881C5.3253 9.73926 5.30671 9.72304 5.28949 9.70582L2.28949 6.70582ZM12 0.5C14.2082 0.5 16 2.29177 16 4.5V4.66875C16 5.12855 15.6285 5.5 15.1688 5.5H8.83125C8.37145 5.5 8 5.12855 8 4.66875V4.5C8 2.29177 9.79177 0.5 12 0.5Z" stroke="currentColor"/>
</g>
<defs>
<clipPath>
<rect fill="currentColor"/>
</clipPath>
</defs>
</symbol>

<symbol id="camera" viewBox="0 0 15 15" fill="none">
  <path
    fill-rule="evenodd"
    clip-rule="evenodd"
    d="M2 3C1.44772 3 1 3.44772 1 4V11C1 11.5523 1.44772 12 2 12H13C13.5523 12 14 11.5523 14 11V4C14 3.44772 13.5523 3 13 3H2ZM0 4C0 2.89543 0.895431 2 2 2H13C14.1046 2 15 2.89543 15 4V11C15 12.1046 14.1046 13 13 13H2C0.895431 13 0 12.1046 0 11V4ZM2 4.25C2 4.11193 2.11193 4 2.25 4H4.75C4.88807 4 5 4.11193 5 4.25V5.75454C5 5.89261 4.88807 6.00454 4.75 6.00454H2.25C2.11193 6.00454 2 5.89261 2 5.75454V4.25ZM12.101 7.58421C12.101 9.02073 10.9365 10.1853 9.49998 10.1853C8.06346 10.1853 6.89893 9.02073 6.89893 7.58421C6.89893 6.14769 8.06346 4.98315 9.49998 4.98315C10.9365 4.98315 12.101 6.14769 12.101 7.58421ZM13.101 7.58421C13.101 9.57302 11.4888 11.1853 9.49998 11.1853C7.51117 11.1853 5.89893 9.57302 5.89893 7.58421C5.89893 5.5954 7.51117 3.98315 9.49998 3.98315C11.4888 3.98315 13.101 5.5954 13.101 7.58421Z"
    fill="currentColor"
  />
</symbol>

<symbol id="chart-bar" fill="none" viewBox="0 0 24 24" stroke-width="1.5" stroke="currentColor" class="w-6 h-6">
  <path stroke-linecap="round" stroke-linejoin="round" d="M3 13.125C3 12.504 3.504 12 4.125 12h2.25c.621 0 1.125.504 1.125 1.125v6.75C7.5 20.496 6.996 21 6.375 21h-2.25A1.125 1.125 0 013 19.875v-6.75zM9.75 8.625c0-.621.504-1.125 1.125-1.125h2.25c.621 0 1.125.504 1.125 1.125v11.25c0 .621-.504 1.125-1.125 1.125h-2.25a1.125 1.125 0 01-1.125-1.125V8.625zM16.5 4.125c0-.621.504-1.125 1.125-1.125h2.25C20.496 3 21 3.504 21 4.125v15.75c0 .621-.504 1.125-1.125 1.125h-2.25a1.125 1.125 0 01-1.125-1.125V4.125z" />
</symbol>

<symbol id="chat" viewBox="0 0 15 15" fill="none"><path d="M12.5 3L2.5 3.00002C1.67157 3.00002 1 3.6716 1 4.50002V9.50003C1 10.3285 1.67157 11 2.5 11H7.50003C7.63264 11 7.75982 11.0527 7.85358 11.1465L10 13.2929V11.5C10 11.2239 10.2239 11 10.5 11H12.5C13.3284 11 14 10.3285 14 9.50003V4.5C14 3.67157 13.3284 3 12.5 3ZM2.49999 2.00002L12.5 2C13.8807 2 15 3.11929 15 4.5V9.50003C15 10.8807 13.8807 12 12.5 12H11V14.5C11 14.7022 10.8782 14.8845 10.6913 14.9619C10.5045 15.0393 10.2894 14.9965 10.1464 14.8536L7.29292 12H2.5C1.11929 12 0 10.8807 0 9.50003V4.50002C0 3.11931 1.11928 2.00003 2.49999 2.00002Z" fill="currentColor" fill-rule="evenodd" clip-rule="evenodd"></path></symbol>

<symbol id="check" viewBox="0 0 15 15" fill="none">
  <path
    fill-rule="evenodd"
    clip-rule="evenodd"
    d="M11.4669 3.72684C11.7558 3.91574 11.8369 4.30308 11.648 4.59198L7.39799 11.092C7.29783 11.2452 7.13556 11.3467 6.95402 11.3699C6.77247 11.3931 6.58989 11.3355 6.45446 11.2124L3.70446 8.71241C3.44905 8.48022 3.43023 8.08494 3.66242 7.82953C3.89461 7.57412 4.28989 7.55529 4.5453 7.78749L6.75292 9.79441L10.6018 3.90792C10.7907 3.61902 11.178 3.53795 11.4669 3.72684Z"
    fill="currentColor"
  />
</symbol>


<!-- HeroIcons
<svg xmlns="http://www.w3.org/2000/svg" fill="none" viewBox="0 0 24 24" stroke-width="1.5" stroke="currentColor" class="w-6 h-6">
  <path stroke-linecap="round" stroke-linejoin="round" d="M4.5 12.75l6 6 9-13.5" />
</svg> -->
<symbol id="chevron-down" fill="none" viewBox="0 0 24 24" stroke-width="1.5" stroke="currentColor" class="w-6 h-6">
  <path stroke-linecap="round" stroke-linejoin="round" d="M19.5 8.25l-7.5 7.5-7.5-7.5" />
</symbol>

<symbol id="chevron-right" viewBox="0 0 15 15" fill="none"><path d="M6.1584 3.13508C6.35985 2.94621 6.67627 2.95642 6.86514 3.15788L10.6151 7.15788C10.7954 7.3502 10.7954 7.64949 10.6151 7.84182L6.86514 11.8418C6.67627 12.0433 6.35985 12.0535 6.1584 11.8646C5.95694 11.6757 5.94673 11.3593 6.1356 11.1579L9.565 7.49985L6.1356 3.84182C5.94673 3.64036 5.95694 3.32394 6.1584 3.13508Z" fill="currentColor" fill-rule="evenodd" clip-rule="evenodd"></path></symbol>

<symbol id="chip" fill="none" viewBox="0 0 24 24" stroke-width="1.5" stroke="currentColor" class="w-6 h-6">
  <path stroke-linecap="round" stroke-linejoin="round" d="M8.25 3v1.5M4.5 8.25H3m18 0h-1.5M4.5 12H3m18 0h-1.5m-15 3.75H3m18 0h-1.5M8.25 19.5V21M12 3v1.5m0 15V21m3.75-18v1.5m0 15V21m-9-1.5h10.5a2.25 2.25 0 002.25-2.25V6.75a2.25 2.25 0 00-2.25-2.25H6.75A2.25 2.25 0 004.5 6.75v10.5a2.25 2.25 0 002.25 2.25zm.75-12h9v9h-9v-9z" />
</symbol>

<symbol id="circle-half-filled" viewBox="0 0 15 15" fill="none"><path d="M7.49991 0.876892C3.84222 0.876892 0.877075 3.84204 0.877075 7.49972C0.877075 11.1574 3.84222 14.1226 7.49991 14.1226C11.1576 14.1226 14.1227 11.1574 14.1227 7.49972C14.1227 3.84204 11.1576 0.876892 7.49991 0.876892ZM7.49988 1.82689C4.36688 1.8269 1.82707 4.36672 1.82707 7.49972C1.82707 10.6327 4.36688 13.1725 7.49988 13.1726V1.82689Z" fill="currentColor" fill-rule="evenodd" clip-rule="evenodd"></path></symbol>

<symbol id="circle-stack" fill="none" viewBox="0 0 24 24" stroke-width="1.5" stroke="currentColor" class="w-6 h-6">
  <path stroke-linecap="round" stroke-linejoin="round" d="M20.25 6.375c0 2.278-3.694 4.125-8.25 4.125S3.75 8.653 3.75 6.375m16.5 0c0-2.278-3.694-4.125-8.25-4.125S3.75 4.097 3.75 6.375m16.5 0v11.25c0 2.278-3.694 4.125-8.25 4.125s-8.25-1.847-8.25-4.125V6.375m16.5 0v3.75m-16.5-3.75v3.75m16.5 0v3.75C20.25 16.153 16.556 18 12 18s-8.25-1.847-8.25-4.125v-3.75m16.5 0c0 2.278-3.694 4.125-8.25 4.125s-8.25-1.847-8.25-4.125" />
</symbol>

<symbol id="code" viewBox="0 0 15 15" fill="none"><path d="M9.96424 2.68571C10.0668 2.42931 9.94209 2.13833 9.6857 2.03577C9.4293 1.93322 9.13832 2.05792 9.03576 2.31432L5.03576 12.3143C4.9332 12.5707 5.05791 12.8617 5.3143 12.9642C5.5707 13.0668 5.86168 12.9421 5.96424 12.6857L9.96424 2.68571ZM3.85355 5.14646C4.04882 5.34172 4.04882 5.6583 3.85355 5.85356L2.20711 7.50001L3.85355 9.14646C4.04882 9.34172 4.04882 9.6583 3.85355 9.85356C3.65829 10.0488 3.34171 10.0488 3.14645 9.85356L1.14645 7.85356C0.951184 7.6583 0.951184 7.34172 1.14645 7.14646L3.14645 5.14646C3.34171 4.9512 3.65829 4.9512 3.85355 5.14646ZM11.1464 5.14646C11.3417 4.9512 11.6583 4.9512 11.8536 5.14646L13.8536 7.14646C14.0488 7.34172 14.0488 7.6583 13.8536 7.85356L11.8536 9.85356C11.6583 10.0488 11.3417 10.0488 11.1464 9.85356C10.9512 9.6583 10.9512 9.34172 11.1464 9.14646L12.7929 7.50001L11.1464 5.85356C10.9512 5.6583 10.9512 5.34172 11.1464 5.14646Z" fill="currentColor" fill-rule="evenodd" clip-rule="evenodd"></path></symbol>

<symbol id="copy" viewBox="0 0 15 15" fill="none"><path d="M1 9.50006C1 10.3285 1.67157 11.0001 2.5 11.0001H4L4 10.0001H2.5C2.22386 10.0001 2 9.7762 2 9.50006L2 2.50006C2 2.22392 2.22386 2.00006 2.5 2.00006L9.5 2.00006C9.77614 2.00006 10 2.22392 10 2.50006V4.00002H5.5C4.67158 4.00002 4 4.67159 4 5.50002V12.5C4 13.3284 4.67158 14 5.5 14H12.5C13.3284 14 14 13.3284 14 12.5V5.50002C14 4.67159 13.3284 4.00002 12.5 4.00002H11V2.50006C11 1.67163 10.3284 1.00006 9.5 1.00006H2.5C1.67157 1.00006 1 1.67163 1 2.50006V9.50006ZM5 5.50002C5 5.22388 5.22386 5.00002 5.5 5.00002H12.5C12.7761 5.00002 13 5.22388 13 5.50002V12.5C13 12.7762 12.7761 13 12.5 13H5.5C5.22386 13 5 12.7762 5 12.5V5.50002Z" fill="currentColor" fill-rule="evenodd" clip-rule="evenodd"></path></symbol>

<symbol id="cross-1" viewBox="0 0 15 15" fill="none">
  <path
    fill-rule="evenodd"
    clip-rule="evenodd"
    d="M12.8536 2.85355C13.0488 2.65829 13.0488 2.34171 12.8536 2.14645C12.6583 1.95118 12.3417 1.95118 12.1464 2.14645L7.5 6.79289L2.85355 2.14645C2.65829 1.95118 2.34171 1.95118 2.14645 2.14645C1.95118 2.34171 1.95118 2.65829 2.14645 2.85355L6.79289 7.5L2.14645 12.1464C1.95118 12.3417 1.95118 12.6583 2.14645 12.8536C2.34171 13.0488 2.65829 13.0488 2.85355 12.8536L7.5 8.20711L12.1464 12.8536C12.3417 13.0488 12.6583 13.0488 12.8536 12.8536C13.0488 12.6583 13.0488 12.3417 12.8536 12.1464L8.20711 7.5L12.8536 2.85355Z"
    fill="currentColor"
  />
</symbol>

<symbol id="crumbled-paper" viewBox="0 0 15 15" fill="none"><path d="M4.60913 0.0634287C4.39082 0.0088505 4.16575 0.12393 4.08218 0.332867L3.1538 2.6538L0.832866 3.58218C0.702884 3.63417 0.604504 3.7437 0.566705 3.87849C0.528906 4.01329 0.555994 4.158 0.639992 4.26999L2.01148 6.09864L1.06343 9.89085C1.00944 10.1068 1.12145 10.3298 1.32691 10.4154L4.20115 11.613L5.62557 13.7496C5.73412 13.9124 5.93545 13.9864 6.12362 13.9327L9.62362 12.9327C9.62988 12.9309 9.63611 12.929 9.64229 12.9269L12.6423 11.9269C12.7923 11.8769 12.905 11.7519 12.9393 11.5976L13.9393 7.09761C13.9776 6.92506 13.9114 6.74605 13.77 6.63999L11.95 5.27499V2.99999C11.95 2.82955 11.8537 2.67373 11.7012 2.5975L8.70124 1.0975C8.67187 1.08282 8.64098 1.07139 8.60913 1.06343L4.60913 0.0634287ZM11.4323 6.01173L12.7748 7.01858L10.2119 9.15429C10.1476 9.20786 10.0995 9.2783 10.0731 9.35769L9.25382 11.8155L7.73849 10.8684C7.52774 10.7367 7.25011 10.8007 7.11839 11.0115C6.98667 11.2222 7.05074 11.4999 7.26149 11.6316L8.40341 12.3453L6.19221 12.9771L4.87441 11.0004C4.82513 10.9265 4.75508 10.8688 4.67307 10.8346L2.03046 9.73352L2.85134 6.44999H4.99999C5.24852 6.44999 5.44999 6.24852 5.44999 5.99999C5.44999 5.75146 5.24852 5.54999 4.99999 5.54999H2.72499L1.7123 4.19974L3.51407 3.47903L6.35769 4.4269C6.53655 4.48652 6.73361 4.42832 6.85138 4.28111L8.62413 2.06518L11.05 3.27811V5.19533L8.83287 6.08218C8.70996 6.13134 8.61494 6.23212 8.57308 6.35769L8.07308 7.85769C7.99449 8.09346 8.12191 8.34831 8.35769 8.4269C8.59346 8.50549 8.84831 8.37807 8.9269 8.14229L9.3609 6.84029L11.4323 6.01173ZM7.71052 1.76648L6.34462 3.47386L4.09505 2.724L4.77192 1.03183L7.71052 1.76648ZM10.2115 11.7885L12.116 11.1537L12.7745 8.19034L10.8864 9.76374L10.2115 11.7885Z" fill="currentColor" fill-rule="evenodd" clip-rule="evenodd"></path></symbol>

<symbol id="desktop" viewBox="0 0 15 15" fill="none"><path d="M1 3.25C1 3.11193 1.11193 3 1.25 3H13.75C13.8881 3 14 3.11193 14 3.25V10.75C14 10.8881 13.8881 11 13.75 11H1.25C1.11193 11 1 10.8881 1 10.75V3.25ZM1.25 2C0.559643 2 0 2.55964 0 3.25V10.75C0 11.4404 0.559644 12 1.25 12H5.07341L4.82991 13.2986C4.76645 13.6371 5.02612 13.95 5.37049 13.95H9.62951C9.97389 13.95 10.2336 13.6371 10.1701 13.2986L9.92659 12H13.75C14.4404 12 15 11.4404 15 10.75V3.25C15 2.55964 14.4404 2 13.75 2H1.25ZM9.01091 12H5.98909L5.79222 13.05H9.20778L9.01091 12Z" fill="currentColor" fill-rule="evenodd" clip-rule="evenodd"></path></symbol>

<symbol id="document-chart-bar" fill="none" viewBox="0 0 24 24" stroke-width="1.5" stroke="currentColor" class="w-6 h-6">
  <path stroke-linecap="round" stroke-linejoin="round" d="M19.5 14.25v-2.625a3.375 3.375 0 00-3.375-3.375h-1.5A1.125 1.125 0 0113.5 7.125v-1.5a3.375 3.375 0 00-3.375-3.375H8.25M9 16.5v.75m3-3v3M15 12v5.25m-4.5-15H5.625c-.621 0-1.125.504-1.125 1.125v17.25c0 .621.504 1.125 1.125 1.125h12.75c.621 0 1.125-.504 1.125-1.125V11.25a9 9 0 00-9-9z" />
</symbol>

<symbol id="exit" viewBox="0 0 15 15" fill="none">
  <path
    fill-rule="evenodd"
    clip-rule="evenodd"
    d="M3 1C2.44771 1 2 1.44772 2 2V13C2 13.5523 2.44772 14 3 14H10.5C10.7761 14 11 13.7761 11 13.5C11 13.2239 10.7761 13 10.5 13H3V2L10.5 2C10.7761 2 11 1.77614 11 1.5C11 1.22386 10.7761 1 10.5 1H3ZM12.6036 4.89645C12.4083 4.70118 12.0917 4.70118 11.8964 4.89645C11.7012 5.09171 11.7012 5.40829 11.8964 5.60355L13.2929 7H6.5C6.22386 7 6 7.22386 6 7.5C6 7.77614 6.22386 8 6.5 8H13.2929L11.8964 9.39645C11.7012 9.59171 11.7012 9.90829 11.8964 10.1036C12.0917 10.2988 12.4083 10.2988 12.6036 10.1036L14.8536 7.85355C15.0488 7.65829 15.0488 7.34171 14.8536 7.14645L12.6036 4.89645Z"
    fill="currentColor"
  />
</symbol>

<symbol id="file-text-folded" viewBox="0 0 15 15" fill="none"><path d="M3 2.5C3 2.22386 3.22386 2 3.5 2H9.08579C9.21839 2 9.34557 2.05268 9.43934 2.14645L11.8536 4.56066C11.9473 4.65443 12 4.78161 12 4.91421V12.5C12 12.7761 11.7761 13 11.5 13H3.5C3.22386 13 3 12.7761 3 12.5V2.5ZM3.5 1C2.67157 1 2 1.67157 2 2.5V12.5C2 13.3284 2.67157 14 3.5 14H11.5C12.3284 14 13 13.3284 13 12.5V4.91421C13 4.51639 12.842 4.13486 12.5607 3.85355L10.1464 1.43934C9.86514 1.15804 9.48361 1 9.08579 1H3.5ZM4.5 4C4.22386 4 4 4.22386 4 4.5C4 4.77614 4.22386 5 4.5 5H7.5C7.77614 5 8 4.77614 8 4.5C8 4.22386 7.77614 4 7.5 4H4.5ZM4.5 7C4.22386 7 4 7.22386 4 7.5C4 7.77614 4.22386 8 4.5 8H10.5C10.7761 8 11 7.77614 11 7.5C11 7.22386 10.7761 7 10.5 7H4.5ZM4.5 10C4.22386 10 4 10.2239 4 10.5C4 10.7761 4.22386 11 4.5 11H10.5C10.7761 11 11 10.7761 11 10.5C11 10.2239 10.7761 10 10.5 10H4.5Z" fill="currentColor" fill-rule="evenodd" clip-rule="evenodd"></path></symbol>

<symbol id="file-text" viewBox="0 0 15 15" fill="none"><path d="M4.2 1H4.17741H4.1774C3.86936 0.999988 3.60368 0.999978 3.38609 1.02067C3.15576 1.04257 2.92825 1.09113 2.71625 1.22104C2.51442 1.34472 2.34473 1.51442 2.22104 1.71625C2.09113 1.92825 2.04257 2.15576 2.02067 2.38609C1.99998 2.60367 1.99999 2.86935 2 3.17738V3.1774V3.2V11.8V11.8226V11.8226C1.99999 12.1307 1.99998 12.3963 2.02067 12.6139C2.04257 12.8442 2.09113 13.0717 2.22104 13.2837C2.34473 13.4856 2.51442 13.6553 2.71625 13.779C2.92825 13.9089 3.15576 13.9574 3.38609 13.9793C3.60368 14 3.86937 14 4.17741 14H4.2H10.8H10.8226C11.1306 14 11.3963 14 11.6139 13.9793C11.8442 13.9574 12.0717 13.9089 12.2837 13.779C12.4856 13.6553 12.6553 13.4856 12.779 13.2837C12.9089 13.0717 12.9574 12.8442 12.9793 12.6139C13 12.3963 13 12.1306 13 11.8226V11.8V3.2V3.17741C13 2.86936 13 2.60368 12.9793 2.38609C12.9574 2.15576 12.9089 1.92825 12.779 1.71625C12.6553 1.51442 12.4856 1.34472 12.2837 1.22104C12.0717 1.09113 11.8442 1.04257 11.6139 1.02067C11.3963 0.999978 11.1306 0.999988 10.8226 1H10.8H4.2ZM3.23875 2.07368C3.26722 2.05623 3.32362 2.03112 3.48075 2.01618C3.64532 2.00053 3.86298 2 4.2 2H10.8C11.137 2 11.3547 2.00053 11.5193 2.01618C11.6764 2.03112 11.7328 2.05623 11.7613 2.07368C11.8285 2.11491 11.8851 2.17147 11.9263 2.23875C11.9438 2.26722 11.9689 2.32362 11.9838 2.48075C11.9995 2.64532 12 2.86298 12 3.2V11.8C12 12.137 11.9995 12.3547 11.9838 12.5193C11.9689 12.6764 11.9438 12.7328 11.9263 12.7613C11.8851 12.8285 11.8285 12.8851 11.7613 12.9263C11.7328 12.9438 11.6764 12.9689 11.5193 12.9838C11.3547 12.9995 11.137 13 10.8 13H4.2C3.86298 13 3.64532 12.9995 3.48075 12.9838C3.32362 12.9689 3.26722 12.9438 3.23875 12.9263C3.17147 12.8851 3.11491 12.8285 3.07368 12.7613C3.05624 12.7328 3.03112 12.6764 3.01618 12.5193C3.00053 12.3547 3 12.137 3 11.8V3.2C3 2.86298 3.00053 2.64532 3.01618 2.48075C3.03112 2.32362 3.05624 2.26722 3.07368 2.23875C3.11491 2.17147 3.17147 2.11491 3.23875 2.07368ZM5 10C4.72386 10 4.5 10.2239 4.5 10.5C4.5 10.7761 4.72386 11 5 11H8C8.27614 11 8.5 10.7761 8.5 10.5C8.5 10.2239 8.27614 10 8 10H5ZM4.5 7.5C4.5 7.22386 4.72386 7 5 7H10C10.2761 7 10.5 7.22386 10.5 7.5C10.5 7.77614 10.2761 8 10 8H5C4.72386 8 4.5 7.77614 4.5 7.5ZM5 4C4.72386 4 4.5 4.22386 4.5 4.5C4.5 4.77614 4.72386 5 5 5H10C10.2761 5 10.5 4.77614 10.5 4.5C10.5 4.22386 10.2761 4 10 4H5Z" fill="currentColor" fill-rule="evenodd" clip-rule="evenodd"></path></symbol>

<symbol id="fire" fill="none" viewBox="0 0 24 24" stroke-width="1.5" stroke="currentColor" class="w-6 h-6">
  <path stroke-linecap="round" stroke-linejoin="round" d="M15.362 5.214A8.252 8.252 0 0112 21 8.25 8.25 0 016.038 7.048 8.287 8.287 0 009 9.6a8.983 8.983 0 013.361-6.867 8.21 8.21 0 003 2.48z" />
  <path stroke-linecap="round" stroke-linejoin="round" d="M12 18a3.75 3.75 0 00.495-7.467 5.99 5.99 0 00-1.925 3.546 5.974 5.974 0 01-2.133-1A3.75 3.75 0 0012 18z" />
</symbol>

<symbol id="globe" viewBox="0 0 15 15" fill="none"><path d="M7.49996 1.80002C4.35194 1.80002 1.79996 4.352 1.79996 7.50002C1.79996 10.648 4.35194 13.2 7.49996 13.2C10.648 13.2 13.2 10.648 13.2 7.50002C13.2 4.352 10.648 1.80002 7.49996 1.80002ZM0.899963 7.50002C0.899963 3.85494 3.85488 0.900024 7.49996 0.900024C11.145 0.900024 14.1 3.85494 14.1 7.50002C14.1 11.1451 11.145 14.1 7.49996 14.1C3.85488 14.1 0.899963 11.1451 0.899963 7.50002Z" fill="currentColor" fill-rule="evenodd" clip-rule="evenodd"></path><path d="M13.4999 7.89998H1.49994V7.09998H13.4999V7.89998Z" fill="currentColor" fill-rule="evenodd" clip-rule="evenodd"></path><path d="M7.09991 13.5V1.5H7.89991V13.5H7.09991zM10.375 7.49998C10.375 5.32724 9.59364 3.17778 8.06183 1.75656L8.53793 1.24341C10.2396 2.82218 11.075 5.17273 11.075 7.49998 11.075 9.82724 10.2396 12.1778 8.53793 13.7566L8.06183 13.2434C9.59364 11.8222 10.375 9.67273 10.375 7.49998zM3.99969 7.5C3.99969 5.17611 4.80786 2.82678 6.45768 1.24719L6.94177 1.75281C5.4582 3.17323 4.69969 5.32389 4.69969 7.5 4.6997 9.67611 5.45822 11.8268 6.94179 13.2472L6.45769 13.7528C4.80788 12.1732 3.9997 9.8239 3.99969 7.5z" fill="currentColor" fill-rule="evenodd" clip-rule="evenodd"></path><path d="M7.49996 3.95801C9.66928 3.95801 11.8753 4.35915 13.3706 5.19448 13.5394 5.28875 13.5998 5.50197 13.5055 5.67073 13.4113 5.83948 13.198 5.89987 13.0293 5.8056 11.6794 5.05155 9.60799 4.65801 7.49996 4.65801 5.39192 4.65801 3.32052 5.05155 1.97064 5.8056 1.80188 5.89987 1.58866 5.83948 1.49439 5.67073 1.40013 5.50197 1.46051 5.28875 1.62927 5.19448 3.12466 4.35915 5.33063 3.95801 7.49996 3.95801zM7.49996 10.85C9.66928 10.85 11.8753 10.4488 13.3706 9.6135 13.5394 9.51924 13.5998 9.30601 13.5055 9.13726 13.4113 8.9685 13.198 8.90812 13.0293 9.00238 11.6794 9.75643 9.60799 10.15 7.49996 10.15 5.39192 10.15 3.32052 9.75643 1.97064 9.00239 1.80188 8.90812 1.58866 8.9685 1.49439 9.13726 1.40013 9.30601 1.46051 9.51924 1.62927 9.6135 3.12466 10.4488 5.33063 10.85 7.49996 10.85z" fill="currentColor" fill-rule="evenodd" clip-rule="evenodd"></path></symbol>

<symbol id="heart-filled" viewBox="0 0 15 15" fill="none"><path d="M1.35248 4.90532C1.35248 2.94498 2.936 1.35248 4.89346 1.35248C6.25769 1.35248 6.86058 1.92336 7.50002 2.93545C8.13946 1.92336 8.74235 1.35248 10.1066 1.35248C12.064 1.35248 13.6476 2.94498 13.6476 4.90532C13.6476 6.74041 12.6013 8.50508 11.4008 9.96927C10.2636 11.3562 8.92194 12.5508 8.00601 13.3664C7.94645 13.4194 7.88869 13.4709 7.83291 13.5206C7.64324 13.6899 7.3568 13.6899 7.16713 13.5206C7.11135 13.4709 7.05359 13.4194 6.99403 13.3664C6.0781 12.5508 4.73641 11.3562 3.59926 9.96927C2.39872 8.50508 1.35248 6.74041 1.35248 4.90532Z" fill="currentColor" fill-rule="evenodd" clip-rule="evenodd"></path></symbol>

<symbol id="lock-closed" viewBox="0 0 15 15" fill="none">
  <path
    fill-rule="evenodd"
    clip-rule="evenodd"
    d="M5 4.63601C5 3.76031 5.24219 3.1054 5.64323 2.67357C6.03934 2.24705 6.64582 1.9783 7.5014 1.9783C8.35745 1.9783 8.96306 2.24652 9.35823 2.67208C9.75838 3.10299 10 3.75708 10 4.63325V5.99999H5V4.63601ZM4 5.99999V4.63601C4 3.58148 4.29339 2.65754 4.91049 1.99307C5.53252 1.32329 6.42675 0.978302 7.5014 0.978302C8.57583 0.978302 9.46952 1.32233 10.091 1.99162C10.7076 2.65557 11 3.57896 11 4.63325V5.99999H12C12.5523 5.99999 13 6.44771 13 6.99999V13C13 13.5523 12.5523 14 12 14H3C2.44772 14 2 13.5523 2 13V6.99999C2 6.44771 2.44772 5.99999 3 5.99999H4ZM3 6.99999H12V13H3V6.99999Z"
    fill="currentColor"
  />
</symbol>

<symbol id="lock-open-1" viewBox="0 0 15 15" fill="none">
  <path
    fill-rule="evenodd"
    clip-rule="evenodd"
    d="M7.4986 0C6.3257 0 5.36107 0.38943 4.73753 1.19361C4.23745 1.83856 4 2.68242 4 3.63325H5C5 2.84313 5.19691 2.23312 5.5278 1.80636C5.91615 1.30552 6.55152 1 7.4986 1C8.35683 1 8.96336 1.26502 9.35846 1.68623C9.75793 2.11211 10 2.76044 10 3.63601V6H3C2.44772 6 2 6.44772 2 7V13C2 13.5523 2.44772 14 3 14H12C12.5523 14 13 13.5523 13 13V7C13 6.44771 12.5523 6 12 6H11V3.63601C11 2.58135 10.7065 1.66167 10.0878 1.0021C9.46477 0.337871 8.57061 0 7.4986 0ZM3 7H12V13H3V7Z"
    fill="currentColor"
  />
</symbol>

<symbol id="masks-theater" viewBox="0 0 24 24" fill="none">
<path d="M3.56477 15.4209C4.99843 16.6223 7.27785 18.1665 9.27535 17.8737C9.48507 17.8437 9.69136 17.7905 9.8942 17.7239C9.5779 17.3146 9.29942 16.9118 9.0622 16.5458C8.30927 15.3809 8.07204 14.043 8.17174 12.765C7.46351 12.9015 6.82403 13.1977 6.29113 13.6104C6.06766 13.7834 5.73074 13.6536 5.78231 13.3774C6.00234 12.2625 6.91686 11.3506 8.12705 11.1709C8.21644 11.1575 8.30927 11.1476 8.39865 11.1442L9.06563 6.77442C9.13439 6.31514 9.34068 5.68613 9.92514 5.24682C10.5646 4.7709 11.6751 4.23174 13.487 4.07199C13.4594 4.0487 13.4319 4.0254 13.4044 4.0021C12.71 3.48292 10.9153 2.61761 7.04063 3.18671C3.16596 3.75582 1.70479 5.09705 1.19596 5.79263C0.999992 6.05888 0.972488 6.39501 1.02062 6.72117L1.85263 12.1893C2.04172 13.4306 2.5918 14.6055 3.56477 15.4242V15.4209ZM6.57993 8.11232C6.7312 8.00915 6.95124 8.04576 6.98562 8.22215C6.98906 8.23879 6.9925 8.25876 6.99593 8.2754C7.10595 9.00093 6.59712 9.67321 5.85794 9.78303C5.11876 9.89286 4.43116 9.39032 4.32114 8.66812C4.3177 8.65147 4.3177 8.63151 4.31426 8.61487C4.29363 8.43515 4.49304 8.3353 4.66838 8.39188C4.9778 8.49173 5.31473 8.52168 5.6551 8.47176C5.99546 8.42183 6.31176 8.29537 6.57649 8.11232H6.57993ZM9.99391 15.98C11.0047 17.5409 12.7271 19.6709 14.7246 19.9637C16.7221 20.2566 19.005 18.7157 20.4352 17.5109C21.4082 16.6955 21.9583 15.5207 22.1474 14.276L22.9794 8.8079C23.0275 8.48174 23 8.1456 22.804 7.87935C22.2952 7.18378 20.834 5.84255 16.9594 5.27344C13.0847 4.70433 11.2935 5.56964 10.599 6.08883C10.3308 6.28852 10.2036 6.60136 10.1555 6.92751L9.32349 12.3956C9.13439 13.637 9.30974 14.9183 9.99734 15.98H9.99391ZM14.9069 10.8314C14.6421 10.6483 14.3293 10.5219 13.9855 10.472C13.6417 10.422 13.3047 10.452 12.9988 10.5518C12.8234 10.6084 12.624 10.5086 12.6446 10.3288C12.6481 10.3122 12.6481 10.2922 12.6515 10.2756C12.7615 9.55006 13.4491 9.05085 14.1883 9.16068C14.9275 9.2705 15.4363 9.94278 15.3263 10.6683C15.3229 10.685 15.3194 10.7049 15.316 10.7216C15.2816 10.898 15.0616 10.9346 14.9103 10.8314H14.9069ZM19.5895 11.3472C19.5551 11.5236 19.3351 11.5602 19.1838 11.4571C18.9191 11.274 18.6062 11.1476 18.2624 11.0976C17.9186 11.0477 17.5817 11.0777 17.2757 11.1775C17.1003 11.2341 16.9009 11.1342 16.9216 10.9545C16.925 10.9379 16.925 10.9179 16.9284 10.9013C17.0384 10.1757 17.7261 9.67653 18.4652 9.78636C19.2044 9.89619 19.7132 10.5685 19.6032 11.294C19.5998 11.3106 19.5963 11.3306 19.5929 11.3472H19.5895ZM19.2216 14.6554C18.5477 16.1431 16.925 17.0683 15.206 16.8153C13.487 16.5624 12.2114 15.2112 12.0086 13.597C11.9742 13.3208 12.3146 13.1943 12.5312 13.3741C13.3529 14.0663 14.374 14.5489 15.5223 14.7153C16.6706 14.8817 17.7948 14.7186 18.785 14.2893C19.0463 14.1761 19.3351 14.3958 19.2182 14.6521L19.2216 14.6554Z" stroke="currentColor"/>
</symbol>

<symbol id="moon" viewBox="0 0 15 15" fill="none">
  <path
    fill-rule="evenodd"
    clip-rule="evenodd"
    d="M2.89998 0.499976C2.89998 0.279062 2.72089 0.0999756 2.49998 0.0999756C2.27906 0.0999756 2.09998 0.279062 2.09998 0.499976V1.09998H1.49998C1.27906 1.09998 1.09998 1.27906 1.09998 1.49998C1.09998 1.72089 1.27906 1.89998 1.49998 1.89998H2.09998V2.49998C2.09998 2.72089 2.27906 2.89998 2.49998 2.89998C2.72089 2.89998 2.89998 2.72089 2.89998 2.49998V1.89998H3.49998C3.72089 1.89998 3.89998 1.72089 3.89998 1.49998C3.89998 1.27906 3.72089 1.09998 3.49998 1.09998H2.89998V0.499976ZM5.89998 3.49998C5.89998 3.27906 5.72089 3.09998 5.49998 3.09998C5.27906 3.09998 5.09998 3.27906 5.09998 3.49998V4.09998H4.49998C4.27906 4.09998 4.09998 4.27906 4.09998 4.49998C4.09998 4.72089 4.27906 4.89998 4.49998 4.89998H5.09998V5.49998C5.09998 5.72089 5.27906 5.89998 5.49998 5.89998C5.72089 5.89998 5.89998 5.72089 5.89998 5.49998V4.89998H6.49998C6.72089 4.89998 6.89998 4.72089 6.89998 4.49998C6.89998 4.27906 6.72089 4.09998 6.49998 4.09998H5.89998V3.49998ZM1.89998 6.49998C1.89998 6.27906 1.72089 6.09998 1.49998 6.09998C1.27906 6.09998 1.09998 6.27906 1.09998 6.49998V7.09998H0.499976C0.279062 7.09998 0.0999756 7.27906 0.0999756 7.49998C0.0999756 7.72089 0.279062 7.89998 0.499976 7.89998H1.09998V8.49998C1.09998 8.72089 1.27906 8.89997 1.49998 8.89997C1.72089 8.89997 1.89998 8.72089 1.89998 8.49998V7.89998H2.49998C2.72089 7.89998 2.89998 7.72089 2.89998 7.49998C2.89998 7.27906 2.72089 7.09998 2.49998 7.09998H1.89998V6.49998ZM8.54406 0.98184L8.24618 0.941586C8.03275 0.917676 7.90692 1.1655 8.02936 1.34194C8.17013 1.54479 8.29981 1.75592 8.41754 1.97445C8.91878 2.90485 9.20322 3.96932 9.20322 5.10022C9.20322 8.37201 6.82247 11.0878 3.69887 11.6097C3.45736 11.65 3.20988 11.6772 2.96008 11.6906C2.74563 11.702 2.62729 11.9535 2.77721 12.1072C2.84551 12.1773 2.91535 12.2458 2.98667 12.3128L3.05883 12.3795L3.31883 12.6045L3.50684 12.7532L3.62796 12.8433L3.81491 12.9742L3.99079 13.089C4.11175 13.1651 4.23536 13.2375 4.36157 13.3059L4.62496 13.4412L4.88553 13.5607L5.18837 13.6828L5.43169 13.7686C5.56564 13.8128 5.70149 13.8529 5.83857 13.8885C5.94262 13.9155 6.04767 13.9401 6.15405 13.9622C6.27993 13.9883 6.40713 14.0109 6.53544 14.0298L6.85241 14.0685L7.11934 14.0892C7.24637 14.0965 7.37436 14.1002 7.50322 14.1002C11.1483 14.1002 14.1032 11.1453 14.1032 7.50023C14.1032 7.25044 14.0893 7.00389 14.0623 6.76131L14.0255 6.48407C13.991 6.26083 13.9453 6.04129 13.8891 5.82642C13.8213 5.56709 13.7382 5.31398 13.6409 5.06881L13.5279 4.80132L13.4507 4.63542L13.3766 4.48666C13.2178 4.17773 13.0353 3.88295 12.8312 3.60423L12.6782 3.40352L12.4793 3.16432L12.3157 2.98361L12.1961 2.85951L12.0355 2.70246L11.8134 2.50184L11.4925 2.24191L11.2483 2.06498L10.9562 1.87446L10.6346 1.68894L10.3073 1.52378L10.1938 1.47176L9.95488 1.3706L9.67791 1.2669L9.42566 1.1846L9.10075 1.09489L8.83599 1.03486L8.54406 0.98184ZM10.4032 5.30023C10.4032 4.27588 10.2002 3.29829 9.83244 2.40604C11.7623 3.28995 13.1032 5.23862 13.1032 7.50023C13.1032 10.593 10.596 13.1002 7.50322 13.1002C6.63646 13.1002 5.81597 12.9036 5.08355 12.5522C6.5419 12.0941 7.81081 11.2082 8.74322 10.0416C8.87963 10.2284 9.10028 10.3497 9.34928 10.3497C9.76349 10.3497 10.0993 10.0139 10.0993 9.59971C10.0993 9.24256 9.84965 8.94373 9.51535 8.86816C9.57741 8.75165 9.63653 8.63334 9.6926 8.51332C9.88358 8.63163 10.1088 8.69993 10.35 8.69993C11.0403 8.69993 11.6 8.14028 11.6 7.44993C11.6 6.75976 11.0406 6.20024 10.3505 6.19993C10.3853 5.90487 10.4032 5.60464 10.4032 5.30023Z"
    fill="currentColor"
  />
</symbol>



<!-- HeroIcons
<svg xmlns="http://www.w3.org/2000/svg" fill="none" viewBox="0 0 24 24" stroke-width="1.5" stroke="currentColor" class="w-6 h-6">
  <path stroke-linecap="round" stroke-linejoin="round" d="M21.752 15.002A9.718 9.718 0 0118 15.75c-5.385 0-9.75-4.365-9.75-9.75 0-1.33.266-2.597.748-3.752A9.753 9.753 0 003 11.25C3 16.635 7.365 21 12.75 21a9.753 9.753 0 009.002-5.998z" />
</svg> -->
<symbol id="mountain" viewBox="0 0 24 24" fill="none" stroke="currentColor" stroke-width="1.5">
	<path d="M14.8409 12.9623L15.4851 13.9892L16.1165 12.9544L17.9208 9.99701C17.9211 9.99656 17.9214 9.99612 17.9217 9.99567C17.9417 9.96439 17.973 9.95 18 9.95C18.026 9.95 18.056 9.96329 18.0763 9.99607C18.0764 9.9962 18.0764 9.99634 18.0765 9.99647L23.0243 18.1041C23.0246 18.1045 23.0248 18.1049 23.0251 18.1054C23.1723 18.3495 23.25 18.6276 23.25 18.9088C23.25 19.7591 22.5612 20.45 21.7088 20.45H17.1038H14.2913H2.09625C1.35171 20.45 0.75 19.8483 0.75 19.1038C0.75 18.8528 0.82176 18.6048 0.957294 18.3894L0.957899 18.3885L9.07897 5.43822C9.07916 5.43793 9.07935 5.43763 9.07953 5.43734C9.19387 5.25711 9.38966 5.15 9.6 5.15C9.8139 5.15 10.0099 5.25986 10.1183 5.43392L10.1197 5.43605L14.8409 12.9623ZM22.591 6.59099C22.169 7.01295 21.5967 7.25 21 7.25C20.4033 7.25 19.831 7.01295 19.409 6.59099C18.9871 6.16903 18.75 5.59674 18.75 5C18.75 4.40326 18.9871 3.83097 19.409 3.40901C19.831 2.98705 20.4033 2.75 21 2.75C21.5967 2.75 22.169 2.98705 22.591 3.40901C23.0129 3.83097 23.25 4.40326 23.25 5C23.25 5.59674 23.0129 6.16903 22.591 6.59099Z" />
</symbol>

<symbol id="paper-plane" viewBox="0 0 15 15" fill="none"><path d="M1.20308 1.04312C1.00481 0.954998 0.772341 1.0048 0.627577 1.16641C0.482813 1.32802 0.458794 1.56455 0.568117 1.75196L3.92115 7.50002L0.568117 13.2481C0.458794 13.4355 0.482813 13.672 0.627577 13.8336C0.772341 13.9952 1.00481 14.045 1.20308 13.9569L14.7031 7.95693C14.8836 7.87668 15 7.69762 15 7.50002C15 7.30243 14.8836 7.12337 14.7031 7.04312L1.20308 1.04312ZM4.84553 7.10002L2.21234 2.586L13.2689 7.50002L2.21234 12.414L4.84552 7.90002H9C9.22092 7.90002 9.4 7.72094 9.4 7.50002C9.4 7.27911 9.22092 7.10002 9 7.10002H4.84553Z" fill="currentColor" fill-rule="evenodd" clip-rule="evenodd"></path></symbol>

<symbol id="pencil-1" viewBox="0 0 15 15" fill="none">
  <path
    fill-rule="evenodd"
    clip-rule="evenodd"
    d="M11.8536 1.14645C11.6583 0.951184 11.3417 0.951184 11.1465 1.14645L3.71455 8.57836C3.62459 8.66832 3.55263 8.77461 3.50251 8.89155L2.04044 12.303C1.9599 12.491 2.00189 12.709 2.14646 12.8536C2.29103 12.9981 2.50905 13.0401 2.69697 12.9596L6.10847 11.4975C6.2254 11.4474 6.3317 11.3754 6.42166 11.2855L13.8536 3.85355C14.0488 3.65829 14.0488 3.34171 13.8536 3.14645L11.8536 1.14645ZM4.42166 9.28547L11.5 2.20711L12.7929 3.5L5.71455 10.5784L4.21924 11.2192L3.78081 10.7808L4.42166 9.28547Z"
    fill="currentColor"
  />
</symbol>

<symbol id="pencil-2" viewBox="0 0 15 15" fill="none">
  <path
    fill-rule="evenodd"
    clip-rule="evenodd"
    d="M12.1464 1.14645C12.3417 0.951184 12.6583 0.951184 12.8535 1.14645L14.8535 3.14645C15.0488 3.34171 15.0488 3.65829 14.8535 3.85355L10.9109 7.79618C10.8349 7.87218 10.7471 7.93543 10.651 7.9835L6.72359 9.94721C6.53109 10.0435 6.29861 10.0057 6.14643 9.85355C5.99425 9.70137 5.95652 9.46889 6.05277 9.27639L8.01648 5.34897C8.06455 5.25283 8.1278 5.16507 8.2038 5.08907L12.1464 1.14645ZM12.5 2.20711L8.91091 5.79618L7.87266 7.87267L8.12731 8.12732L10.2038 7.08907L13.7929 3.5L12.5 2.20711ZM9.99998 2L8.99998 3H4.9C4.47171 3 4.18056 3.00039 3.95552 3.01877C3.73631 3.03668 3.62421 3.06915 3.54601 3.10899C3.35785 3.20487 3.20487 3.35785 3.10899 3.54601C3.06915 3.62421 3.03669 3.73631 3.01878 3.95552C3.00039 4.18056 3 4.47171 3 4.9V11.1C3 11.5283 3.00039 11.8194 3.01878 12.0445C3.03669 12.2637 3.06915 12.3758 3.10899 12.454C3.20487 12.6422 3.35785 12.7951 3.54601 12.891C3.62421 12.9309 3.73631 12.9633 3.95552 12.9812C4.18056 12.9996 4.47171 13 4.9 13H11.1C11.5283 13 11.8194 12.9996 12.0445 12.9812C12.2637 12.9633 12.3758 12.9309 12.454 12.891C12.6422 12.7951 12.7951 12.6422 12.891 12.454C12.9309 12.3758 12.9633 12.2637 12.9812 12.0445C12.9996 11.8194 13 11.5283 13 11.1V6.99998L14 5.99998V11.1V11.1207C14 11.5231 14 11.8553 13.9779 12.1259C13.9549 12.407 13.9057 12.6653 13.782 12.908C13.5903 13.2843 13.2843 13.5903 12.908 13.782C12.6653 13.9057 12.407 13.9549 12.1259 13.9779C11.8553 14 11.5231 14 11.1207 14H11.1H4.9H4.87934C4.47686 14 4.14468 14 3.87409 13.9779C3.59304 13.9549 3.33469 13.9057 3.09202 13.782C2.7157 13.5903 2.40973 13.2843 2.21799 12.908C2.09434 12.6653 2.04506 12.407 2.0221 12.1259C1.99999 11.8553 1.99999 11.5231 2 11.1207V11.1206V11.1V4.9V4.87935V4.87932V4.87931C1.99999 4.47685 1.99999 4.14468 2.0221 3.87409C2.04506 3.59304 2.09434 3.33469 2.21799 3.09202C2.40973 2.71569 2.7157 2.40973 3.09202 2.21799C3.33469 2.09434 3.59304 2.04506 3.87409 2.0221C4.14468 1.99999 4.47685 1.99999 4.87932 2H4.87935H4.9H9.99998Z"
    fill="currentColor"
  />
</symbol>

<symbol id="person" viewBox="0 0 15 15" fill="none"><path d="M7.5 0.875C5.49797 0.875 3.875 2.49797 3.875 4.5C3.875 6.15288 4.98124 7.54738 6.49373 7.98351C5.2997 8.12901 4.27557 8.55134 3.50407 9.31167C2.52216 10.2794 2.02502 11.72 2.02502 13.5999C2.02502 13.8623 2.23769 14.0749 2.50002 14.0749C2.76236 14.0749 2.97502 13.8623 2.97502 13.5999C2.97502 11.8799 3.42786 10.7206 4.17091 9.9883C4.91536 9.25463 6.02674 8.87499 7.49995 8.87499C8.97317 8.87499 10.0846 9.25463 10.8291 9.98831C11.5721 10.7206 12.025 11.8799 12.025 13.5999C12.025 13.8623 12.2376 14.0749 12.5 14.0749C12.7623 14.075 12.975 13.8623 12.975 13.6C12.975 11.72 12.4778 10.2794 11.4959 9.31166C10.7244 8.55135 9.70025 8.12903 8.50625 7.98352C10.0187 7.5474 11.125 6.15289 11.125 4.5C11.125 2.49797 9.50203 0.875 7.5 0.875ZM4.825 4.5C4.825 3.02264 6.02264 1.825 7.5 1.825C8.97736 1.825 10.175 3.02264 10.175 4.5C10.175 5.97736 8.97736 7.175 7.5 7.175C6.02264 7.175 4.825 5.97736 4.825 4.5Z" fill="currentColor" fill-rule="evenodd" clip-rule="evenodd"></path></symbol>

;<symbol id="play" viewBox="0 0 15 15" fill="none">
	<path
		d="M3.24182 2.32181C3.3919 2.23132 3.5784 2.22601 3.73338 2.30781L12.7334 7.05781C12.8974 7.14436 13 7.31457 13 7.5C13 7.68543 12.8974 7.85564 12.7334 7.94219L3.73338 12.6922C3.5784 12.774 3.3919 12.7687 3.24182 12.6782C3.09175 12.5877 3 12.4252 3 12.25V2.75C3 2.57476 3.09175 2.4123 3.24182 2.32181ZM4 3.57925V11.4207L11.4288 7.5L4 3.57925Z"
		fill="currentColor"
		fill-rule="evenodd"
		clip-rule="evenodd"
	></path>
</symbol>

<symbol id="plus" viewBox="0 0 15 15" fill="none">
  <path
    fill-rule="evenodd"
    clip-rule="evenodd"
    d="M8 2.75C8 2.47386 7.77614 2.25 7.5 2.25C7.22386 2.25 7 2.47386 7 2.75V7H2.75C2.47386 7 2.25 7.22386 2.25 7.5C2.25 7.77614 2.47386 8 2.75 8H7V12.25C7 12.5261 7.22386 12.75 7.5 12.75C7.77614 12.75 8 12.5261 8 12.25V8H12.25C12.5261 8 12.75 7.77614 12.75 7.5C12.75 7.22386 12.5261 7 12.25 7H8V2.75Z"
    fill="currentColor"
  />
</symbol>

<symbol id="presentation-chart-line" fill="none" viewBox="0 0 24 24" stroke-width="1.5" stroke="currentColor" class="w-6 h-6">
  <path stroke-linecap="round" stroke-linejoin="round" d="M3.75 3v11.25A2.25 2.25 0 006 16.5h2.25M3.75 3h-1.5m1.5 0h16.5m0 0h1.5m-1.5 0v11.25A2.25 2.25 0 0118 16.5h-2.25m-7.5 0h7.5m-7.5 0l-1 3m8.5-3l1 3m0 0l.5 1.5m-.5-1.5h-9.5m0 0l-.5 1.5m.75-9l3-3 2.148 2.148A12.061 12.061 0 0116.5 7.605" />
</symbol>

<symbol id="presentation-chart" fill="none" viewBox="0 0 24 24" stroke-width="1.5" stroke="currentColor" class="w-6 h-6">
  <path stroke-linecap="round" stroke-linejoin="round" d="M3.75 3v11.25A2.25 2.25 0 006 16.5h2.25M3.75 3h-1.5m1.5 0h16.5m0 0h1.5m-1.5 0v11.25A2.25 2.25 0 0118 16.5h-2.25m-7.5 0h7.5m-7.5 0l-1 3m8.5-3l1 3m0 0l.5 1.5m-.5-1.5h-9.5m0 0l-.5 1.5m.75-9l3-3 2.148 2.148A12.061 12.061 0 0116.5 7.605" />
</symbol>

<symbol id="rocket" viewBox="0 0 15 15" fill="none">
<path d="M6.85357 3.85355L7.65355 3.05353C8.2981 2.40901 9.42858 1.96172 10.552 1.80125C11.1056 1.72217 11.6291 1.71725 12.0564 1.78124C12.4987 1.84748 12.7698 1.97696 12.8965 2.10357C13.0231 2.23018 13.1526 2.50125 13.2188 2.94357C13.2828 3.37086 13.2779 3.89439 13.1988 4.44801C13.0383 5.57139 12.591 6.70188 11.9464 7.34645L7.49999 11.7929L6.35354 10.6465C6.15827 10.4512 5.84169 10.4512 5.64643 10.6465C5.45117 10.8417 5.45117 11.1583 5.64643 11.3536L7.14644 12.8536C7.34171 13.0488 7.65829 13.0488 7.85355 12.8536L8.40073 12.3064L9.57124 14.2572C9.65046 14.3893 9.78608 14.4774 9.9389 14.4963C10.0917 14.5151 10.2447 14.4624 10.3535 14.3536L12.3535 12.3536C12.4648 12.2423 12.5172 12.0851 12.495 11.9293L12.0303 8.67679L12.6536 8.05355C13.509 7.19808 14.0117 5.82855 14.1887 4.58943C14.2784 3.9618 14.2891 3.33847 14.2078 2.79546C14.1287 2.26748 13.9519 1.74482 13.6035 1.39645C13.2552 1.04809 12.7325 0.871332 12.2045 0.792264C11.6615 0.710945 11.0382 0.721644 10.4105 0.8113C9.17143 0.988306 7.80189 1.491 6.94644 2.34642L6.32322 2.96968L3.07071 2.50504C2.91492 2.48278 2.75773 2.53517 2.64645 2.64646L0.646451 4.64645C0.537579 4.75533 0.484938 4.90829 0.50375 5.0611C0.522563 5.21391 0.61073 5.34954 0.742757 5.42876L2.69364 6.59928L2.14646 7.14645C2.0527 7.24022 2.00002 7.3674 2.00002 7.50001C2.00002 7.63261 2.0527 7.75979 2.14646 7.85356L3.64647 9.35356C3.84173 9.54883 4.15831 9.54883 4.35357 9.35356C4.54884 9.1583 4.54884 8.84172 4.35357 8.64646L3.20712 7.50001L3.85357 6.85356L6.85357 3.85355ZM10.0993 13.1936L9.12959 11.5775L11.1464 9.56067L11.4697 11.8232L10.0993 13.1936ZM3.42251 5.87041L5.43935 3.85356L3.17678 3.53034L1.80638 4.90074L3.42251 5.87041ZM2.35356 10.3535C2.54882 10.1583 2.54882 9.8417 2.35356 9.64644C2.1583 9.45118 1.84171 9.45118 1.64645 9.64644L0.646451 10.6464C0.451188 10.8417 0.451188 11.1583 0.646451 11.3535C0.841713 11.5488 1.1583 11.5488 1.35356 11.3535L2.35356 10.3535ZM3.85358 11.8536C4.04884 11.6583 4.04885 11.3417 3.85359 11.1465C3.65833 10.9512 3.34175 10.9512 3.14648 11.1465L1.14645 13.1464C0.95119 13.3417 0.951187 13.6583 1.14645 13.8535C1.34171 14.0488 1.65829 14.0488 1.85355 13.8536L3.85358 11.8536ZM5.35356 13.3535C5.54882 13.1583 5.54882 12.8417 5.35356 12.6464C5.1583 12.4512 4.84171 12.4512 4.64645 12.6464L3.64645 13.6464C3.45119 13.8417 3.45119 14.1583 3.64645 14.3535C3.84171 14.5488 4.1583 14.5488 4.35356 14.3535L5.35356 13.3535ZM9.49997 6.74881C10.1897 6.74881 10.7488 6.1897 10.7488 5.5C10.7488 4.8103 10.1897 4.25118 9.49997 4.25118C8.81026 4.25118 8.25115 4.8103 8.25115 5.5C8.25115 6.1897 8.81026 6.74881 9.49997 6.74881Z" fill="currentColor" fill-rule="evenodd" clip-rule="evenodd"></path>
</symbol>

<symbol id="star" viewBox="0 0 15 15" fill="none"><path d="M7.22303 0.665992C7.32551 0.419604 7.67454 0.419604 7.77702 0.665992L9.41343 4.60039C9.45663 4.70426 9.55432 4.77523 9.66645 4.78422L13.914 5.12475C14.18 5.14607 14.2878 5.47802 14.0852 5.65162L10.849 8.42374C10.7636 8.49692 10.7263 8.61176 10.7524 8.72118L11.7411 12.866C11.803 13.1256 11.5206 13.3308 11.2929 13.1917L7.6564 10.9705C7.5604 10.9119 7.43965 10.9119 7.34365 10.9705L3.70718 13.1917C3.47945 13.3308 3.19708 13.1256 3.25899 12.866L4.24769 8.72118C4.2738 8.61176 4.23648 8.49692 4.15105 8.42374L0.914889 5.65162C0.712228 5.47802 0.820086 5.14607 1.08608 5.12475L5.3336 4.78422C5.44573 4.77523 5.54342 4.70426 5.58662 4.60039L7.22303 0.665992Z" fill="currentColor"></path></symbol>

<symbol id="sun" viewBox="0 0 15 15" fill="none">
  <path
    fill-rule="evenodd"
    clip-rule="evenodd"
    d="M7.5 0C7.77614 0 8 0.223858 8 0.5V2.5C8 2.77614 7.77614 3 7.5 3C7.22386 3 7 2.77614 7 2.5V0.5C7 0.223858 7.22386 0 7.5 0ZM2.1967 2.1967C2.39196 2.00144 2.70854 2.00144 2.90381 2.1967L4.31802 3.61091C4.51328 3.80617 4.51328 4.12276 4.31802 4.31802C4.12276 4.51328 3.80617 4.51328 3.61091 4.31802L2.1967 2.90381C2.00144 2.70854 2.00144 2.39196 2.1967 2.1967ZM0.5 7C0.223858 7 0 7.22386 0 7.5C0 7.77614 0.223858 8 0.5 8H2.5C2.77614 8 3 7.77614 3 7.5C3 7.22386 2.77614 7 2.5 7H0.5ZM2.1967 12.8033C2.00144 12.608 2.00144 12.2915 2.1967 12.0962L3.61091 10.682C3.80617 10.4867 4.12276 10.4867 4.31802 10.682C4.51328 10.8772 4.51328 11.1938 4.31802 11.3891L2.90381 12.8033C2.70854 12.9986 2.39196 12.9986 2.1967 12.8033ZM12.5 7C12.2239 7 12 7.22386 12 7.5C12 7.77614 12.2239 8 12.5 8H14.5C14.7761 8 15 7.77614 15 7.5C15 7.22386 14.7761 7 14.5 7H12.5ZM10.682 4.31802C10.4867 4.12276 10.4867 3.80617 10.682 3.61091L12.0962 2.1967C12.2915 2.00144 12.608 2.00144 12.8033 2.1967C12.9986 2.39196 12.9986 2.70854 12.8033 2.90381L11.3891 4.31802C11.1938 4.51328 10.8772 4.51328 10.682 4.31802ZM8 12.5C8 12.2239 7.77614 12 7.5 12C7.22386 12 7 12.2239 7 12.5V14.5C7 14.7761 7.22386 15 7.5 15C7.77614 15 8 14.7761 8 14.5V12.5ZM10.682 10.682C10.8772 10.4867 11.1938 10.4867 11.3891 10.682L12.8033 12.0962C12.9986 12.2915 12.9986 12.608 12.8033 12.8033C12.608 12.9986 12.2915 12.9986 12.0962 12.8033L10.682 11.3891C10.4867 11.1938 10.4867 10.8772 10.682 10.682ZM5.5 7.5C5.5 6.39543 6.39543 5.5 7.5 5.5C8.60457 5.5 9.5 6.39543 9.5 7.5C9.5 8.60457 8.60457 9.5 7.5 9.5C6.39543 9.5 5.5 8.60457 5.5 7.5ZM7.5 4.5C5.84315 4.5 4.5 5.84315 4.5 7.5C4.5 9.15685 5.84315 10.5 7.5 10.5C9.15685 10.5 10.5 9.15685 10.5 7.5C10.5 5.84315 9.15685 4.5 7.5 4.5Z"
    fill="currentColor"
  />
</symbol>



<!-- HeroIcons
<svg xmlns="http://www.w3.org/2000/svg" fill="none" viewBox="0 0 24 24" stroke-width="1.5" stroke="currentColor" class="w-6 h-6">
  <path stroke-linecap="round" stroke-linejoin="round" d="M12 3v2.25m6.364.386l-1.591 1.591M21 12h-2.25m-.386 6.364l-1.591-1.591M12 18.75V21m-4.773-4.227l-1.591 1.591M5.25 12H3m4.227-4.773L5.636 5.636M15.75 12a3.75 3.75 0 11-7.5 0 3.75 3.75 0 017.5 0z" />
</svg> -->
<symbol id="swatch" fill="none" viewBox="0 0 24 24" stroke-width="1.5" stroke="currentColor" class="w-6 h-6">
  <path stroke-linecap="round" stroke-linejoin="round" d="M4.098 19.902a3.75 3.75 0 005.304 0l6.401-6.402M6.75 21A3.75 3.75 0 013 17.25V4.125C3 3.504 3.504 3 4.125 3h5.25c.621 0 1.125.504 1.125 1.125v4.072M6.75 21a3.75 3.75 0 003.75-3.75V8.197M6.75 21h13.125c.621 0 1.125-.504 1.125-1.125v-5.25c0-.621-.504-1.125-1.125-1.125h-4.072M10.5 8.197l2.88-2.88c.438-.439 1.15-.439 1.59 0l3.712 3.713c.44.44.44 1.152 0 1.59l-2.879 2.88M6.75 17.25h.008v.008H6.75v-.008z" />
</symbol>

<symbol id="trash" viewBox="0 0 15 15" fill="none">
  <path
    fill-rule="evenodd"
    clip-rule="evenodd"
    d="M5.5 1C5.22386 1 5 1.22386 5 1.5C5 1.77614 5.22386 2 5.5 2H9.5C9.77614 2 10 1.77614 10 1.5C10 1.22386 9.77614 1 9.5 1H5.5ZM3 3.5C3 3.22386 3.22386 3 3.5 3H5H10H11.5C11.7761 3 12 3.22386 12 3.5C12 3.77614 11.7761 4 11.5 4H11V12C11 12.5523 10.5523 13 10 13H5C4.44772 13 4 12.5523 4 12V4L3.5 4C3.22386 4 3 3.77614 3 3.5ZM5 4H10V12H5V4Z"
    fill="currentColor"
  />
</symbol>

<symbol id="trophy" fill="none" viewBox="0 0 24 24" stroke-width="1.5" stroke="currentColor">
  <path stroke-linecap="round" stroke-linejoin="round" d="M16.5 18.75h-9m9 0a3 3 0 013 3h-15a3 3 0 013-3m9 0v-3.375c0-.621-.503-1.125-1.125-1.125h-.871M7.5 18.75v-3.375c0-.621.504-1.125 1.125-1.125h.872m5.007 0H9.497m5.007 0a7.454 7.454 0 01-.982-3.172M9.497 14.25a7.454 7.454 0 00.981-3.172M5.25 4.236c-.982.143-1.954.317-2.916.52A6.003 6.003 0 007.73 9.728M5.25 4.236V4.5c0 2.108.966 3.99 2.48 5.228M5.25 4.236V2.721C7.456 2.41 9.71 2.25 12 2.25c2.291 0 4.545.16 6.75.47v1.516M7.73 9.728a6.726 6.726 0 002.748 1.35m8.272-6.842V4.5c0 2.108-.966 3.99-2.48 5.228m2.48-5.492a46.32 46.32 0 012.916.52 6.003 6.003 0 01-5.395 4.972m0 0a6.726 6.726 0 01-2.749 1.35m0 0a6.772 6.772 0 01-3.044 0" />
</symbol>

<symbol id="tsx" viewBox="0 0 32 32"><title>file_type_reactts</title><circle cx="16" cy="15.974" r="2.5" style="fill:#007acc"/><path d="M16,21.706a28.385,28.385,0,0,1-8.88-1.2,11.3,11.3,0,0,1-3.657-1.958A3.543,3.543,0,0,1,2,15.974c0-1.653,1.816-3.273,4.858-4.333A28.755,28.755,0,0,1,16,10.293a28.674,28.674,0,0,1,9.022,1.324,11.376,11.376,0,0,1,3.538,1.866A3.391,3.391,0,0,1,30,15.974c0,1.718-2.03,3.459-5.3,4.541A28.8,28.8,0,0,1,16,21.706Zm0-10.217a27.948,27.948,0,0,0-8.749,1.282c-2.8.977-4.055,2.313-4.055,3.2,0,.928,1.349,2.387,4.311,3.4A27.21,27.21,0,0,0,16,20.51a27.6,27.6,0,0,0,8.325-1.13C27.4,18.361,28.8,16.9,28.8,15.974a2.327,2.327,0,0,0-1.01-1.573,10.194,10.194,0,0,0-3.161-1.654A27.462,27.462,0,0,0,16,11.489Z" style="fill:#007acc"/><path d="M10.32,28.443a2.639,2.639,0,0,1-1.336-.328c-1.432-.826-1.928-3.208-1.327-6.373a28.755,28.755,0,0,1,3.4-8.593h0A28.676,28.676,0,0,1,16.71,5.995a11.376,11.376,0,0,1,3.384-2.133,3.391,3.391,0,0,1,2.878,0c1.489.858,1.982,3.486,1.287,6.859a28.806,28.806,0,0,1-3.316,8.133,28.385,28.385,0,0,1-5.476,7.093,11.3,11.3,0,0,1-3.523,2.189A4.926,4.926,0,0,1,10.32,28.443Zm1.773-14.7a27.948,27.948,0,0,0-3.26,8.219c-.553,2.915-.022,4.668.75,5.114.8.463,2.742.024,5.1-2.036a27.209,27.209,0,0,0,5.227-6.79,27.6,27.6,0,0,0,3.181-7.776c.654-3.175.089-5.119-.713-5.581a2.327,2.327,0,0,0-1.868.089A10.194,10.194,0,0,0,17.5,6.9a27.464,27.464,0,0,0-5.4,6.849Z" style="fill:#007acc"/><path d="M21.677,28.456c-1.355,0-3.076-.82-4.868-2.361a28.756,28.756,0,0,1-5.747-7.237h0a28.676,28.676,0,0,1-3.374-8.471,11.376,11.376,0,0,1-.158-4A3.391,3.391,0,0,1,8.964,3.9c1.487-.861,4.01.024,6.585,2.31a28.8,28.8,0,0,1,5.39,6.934,28.384,28.384,0,0,1,3.41,8.287,11.3,11.3,0,0,1,.137,4.146,3.543,3.543,0,0,1-1.494,2.555A2.59,2.59,0,0,1,21.677,28.456Zm-9.58-10.2a27.949,27.949,0,0,0,5.492,6.929c2.249,1.935,4.033,2.351,4.8,1.9.8-.465,1.39-2.363.782-5.434A27.212,27.212,0,0,0,19.9,13.74,27.6,27.6,0,0,0,14.755,7.1c-2.424-2.152-4.39-2.633-5.191-2.169a2.327,2.327,0,0,0-.855,1.662,10.194,10.194,0,0,0,.153,3.565,27.465,27.465,0,0,0,3.236,8.1Z" style="fill:#007acc"/></symbol>

<symbol id="video" fill="none" viewBox="0 0 24 24" stroke-width="1.5" stroke="currentColor" class="w-6 h-6">
  <path stroke-linecap="round" d="M15.75 10.5l4.72-4.72a.75.75 0 011.28.53v11.38a.75.75 0 01-1.28.53l-4.72-4.72M4.5 18.75h9a2.25 2.25 0 002.25-2.25v-9a2.25 2.25 0 00-2.25-2.25h-9A2.25 2.25 0 002.25 7.5v9a2.25 2.25 0 002.25 2.25z" />
</symbol>

<symbol id="x-mark" fill="none" viewBox="0 0 24 24" stroke-width="1.5" stroke="currentColor" class="w-6 h-6">
  <path stroke-linecap="round" stroke-linejoin="round" d="M6 18L18 6M6 6l12 12" />
</symbol>

</svg>
