<?xml version="1.0" encoding="UTF-8"?>
<svg xmlns="http://www.w3.org/2000/svg" xmlns:xlink="http://www.w3.org/1999/xlink" width="0" height="0">
<symbol id="avatar" viewBox="0 0 15 15" fill="none">
  <path
    fill-rule="evenodd"
    clip-rule="evenodd"
    d="M0.877014 7.49988C0.877014 3.84219 3.84216 0.877045 7.49985 0.877045C11.1575 0.877045 14.1227 3.84219 14.1227 7.49988C14.1227 11.1575 11.1575 14.1227 7.49985 14.1227C3.84216 14.1227 0.877014 11.1575 0.877014 7.49988ZM7.49985 1.82704C4.36683 1.82704 1.82701 4.36686 1.82701 7.49988C1.82701 8.97196 2.38774 10.3131 3.30727 11.3213C4.19074 9.94119 5.73818 9.02499 7.50023 9.02499C9.26206 9.02499 10.8093 9.94097 11.6929 11.3208C12.6121 10.3127 13.1727 8.97172 13.1727 7.49988C13.1727 4.36686 10.6328 1.82704 7.49985 1.82704ZM10.9818 11.9787C10.2839 10.7795 8.9857 9.97499 7.50023 9.97499C6.01458 9.97499 4.71624 10.7797 4.01845 11.9791C4.97952 12.7272 6.18765 13.1727 7.49985 13.1727C8.81227 13.1727 10.0206 12.727 10.9818 11.9787ZM5.14999 6.50487C5.14999 5.207 6.20212 4.15487 7.49999 4.15487C8.79786 4.15487 9.84999 5.207 9.84999 6.50487C9.84999 7.80274 8.79786 8.85487 7.49999 8.85487C6.20212 8.85487 5.14999 7.80274 5.14999 6.50487ZM7.49999 5.10487C6.72679 5.10487 6.09999 5.73167 6.09999 6.50487C6.09999 7.27807 6.72679 7.90487 7.49999 7.90487C8.27319 7.90487 8.89999 7.27807 8.89999 6.50487C8.89999 5.73167 8.27319 5.10487 7.49999 5.10487Z"
    fill="currentColor"
  />
</symbol>

<symbol id="bars-3" fill="none" viewBox="0 0 24 24" stroke-width="1.5" stroke="currentColor" class="w-6 h-6">
  <path stroke-linecap="round" stroke-linejoin="round" d="M3.75 6.75h16.5M3.75 12h16.5m-16.5 5.25h16.5" />
</symbol>

<symbol id="bell" viewBox="0 0 15 15" fill="none">
	<path d="M8.60124 1.25086C8.60124 1.75459 8.26278 2.17927 7.80087 2.30989C10.1459 2.4647 12 4.41582 12 6.79999V10.25C12 11.0563 12.0329 11.7074 12.7236 12.0528C12.931 12.1565 13.0399 12.3892 12.9866 12.6149C12.9333 12.8406 12.7319 13 12.5 13H8.16144C8.36904 13.1832 8.49997 13.4513 8.49997 13.75C8.49997 14.3023 8.05226 14.75 7.49997 14.75C6.94769 14.75 6.49997 14.3023 6.49997 13.75C6.49997 13.4513 6.63091 13.1832 6.83851 13H2.49999C2.2681 13 2.06664 12.8406 2.01336 12.6149C1.96009 12.3892 2.06897 12.1565 2.27638 12.0528C2.96708 11.7074 2.99999 11.0563 2.99999 10.25V6.79999C2.99999 4.41537 4.85481 2.46396 7.20042 2.3098C6.73867 2.17908 6.40036 1.75448 6.40036 1.25086C6.40036 0.643104 6.89304 0.150421 7.5008 0.150421C8.10855 0.150421 8.60124 0.643104 8.60124 1.25086ZM7.49999 3.29999C5.56699 3.29999 3.99999 4.86699 3.99999 6.79999V10.25L4.00002 10.3009C4.0005 10.7463 4.00121 11.4084 3.69929 12H11.3007C10.9988 11.4084 10.9995 10.7463 11 10.3009L11 10.25V6.79999C11 4.86699 9.43299 3.29999 7.49999 3.29999Z" fill="currentColor" fill-rule="evenodd" clip-rule="evenodd"></path>
</symbol>

<symbol id="bolt" viewBox="0 0 15 15" fill="none"><path d="M8.69667 0.0403541C8.90859 0.131038 9.03106 0.354857 8.99316 0.582235L8.0902 6.00001H12.5C12.6893 6.00001 12.8625 6.10701 12.9472 6.27641C13.0319 6.4458 13.0136 6.6485 12.8999 6.80001L6.89997 14.8C6.76167 14.9844 6.51521 15.0503 6.30328 14.9597C6.09135 14.869 5.96888 14.6452 6.00678 14.4178L6.90974 9H2.49999C2.31061 9 2.13748 8.893 2.05278 8.72361C1.96809 8.55422 1.98636 8.35151 2.09999 8.2L8.09997 0.200038C8.23828 0.0156255 8.48474 -0.0503301 8.69667 0.0403541ZM3.49999 8.00001H7.49997C7.64695 8.00001 7.78648 8.06467 7.88148 8.17682C7.97648 8.28896 8.01733 8.43723 7.99317 8.5822L7.33027 12.5596L11.5 7.00001H7.49997C7.353 7.00001 7.21347 6.93534 7.11846 6.8232C7.02346 6.71105 6.98261 6.56279 7.00678 6.41781L7.66968 2.44042L3.49999 8.00001Z" fill="currentColor" fill-rule="evenodd" clip-rule="evenodd"></path></symbol>

<symbol id="camera" viewBox="0 0 15 15" fill="none">
  <path
    fill-rule="evenodd"
    clip-rule="evenodd"
    d="M2 3C1.44772 3 1 3.44772 1 4V11C1 11.5523 1.44772 12 2 12H13C13.5523 12 14 11.5523 14 11V4C14 3.44772 13.5523 3 13 3H2ZM0 4C0 2.89543 0.895431 2 2 2H13C14.1046 2 15 2.89543 15 4V11C15 12.1046 14.1046 13 13 13H2C0.895431 13 0 12.1046 0 11V4ZM2 4.25C2 4.11193 2.11193 4 2.25 4H4.75C4.88807 4 5 4.11193 5 4.25V5.75454C5 5.89261 4.88807 6.00454 4.75 6.00454H2.25C2.11193 6.00454 2 5.89261 2 5.75454V4.25ZM12.101 7.58421C12.101 9.02073 10.9365 10.1853 9.49998 10.1853C8.06346 10.1853 6.89893 9.02073 6.89893 7.58421C6.89893 6.14769 8.06346 4.98315 9.49998 4.98315C10.9365 4.98315 12.101 6.14769 12.101 7.58421ZM13.101 7.58421C13.101 9.57302 11.4888 11.1853 9.49998 11.1853C7.51117 11.1853 5.89893 9.57302 5.89893 7.58421C5.89893 5.5954 7.51117 3.98315 9.49998 3.98315C11.4888 3.98315 13.101 5.5954 13.101 7.58421Z"
    fill="currentColor"
  />
</symbol>

<symbol id="check" viewBox="0 0 15 15" fill="none">
  <path
    fill-rule="evenodd"
    clip-rule="evenodd"
    d="M11.4669 3.72684C11.7558 3.91574 11.8369 4.30308 11.648 4.59198L7.39799 11.092C7.29783 11.2452 7.13556 11.3467 6.95402 11.3699C6.77247 11.3931 6.58989 11.3355 6.45446 11.2124L3.70446 8.71241C3.44905 8.48022 3.43023 8.08494 3.66242 7.82953C3.89461 7.57412 4.28989 7.55529 4.5453 7.78749L6.75292 9.79441L10.6018 3.90792C10.7907 3.61902 11.178 3.53795 11.4669 3.72684Z"
    fill="currentColor"
  />
</symbol>


<!-- HeroIcons
<svg xmlns="http://www.w3.org/2000/svg" fill="none" viewBox="0 0 24 24" stroke-width="1.5" stroke="currentColor" class="w-6 h-6">
  <path stroke-linecap="round" stroke-linejoin="round" d="M4.5 12.75l6 6 9-13.5" />
</svg> -->
<symbol id="chevron-down" fill="none" viewBox="0 0 24 24" stroke-width="1.5" stroke="currentColor" class="w-6 h-6">
  <path stroke-linecap="round" stroke-linejoin="round" d="M19.5 8.25l-7.5 7.5-7.5-7.5" />
</symbol>

<symbol id="code" viewBox="0 0 15 15" fill="none"><path d="M9.96424 2.68571C10.0668 2.42931 9.94209 2.13833 9.6857 2.03577C9.4293 1.93322 9.13832 2.05792 9.03576 2.31432L5.03576 12.3143C4.9332 12.5707 5.05791 12.8617 5.3143 12.9642C5.5707 13.0668 5.86168 12.9421 5.96424 12.6857L9.96424 2.68571ZM3.85355 5.14646C4.04882 5.34172 4.04882 5.6583 3.85355 5.85356L2.20711 7.50001L3.85355 9.14646C4.04882 9.34172 4.04882 9.6583 3.85355 9.85356C3.65829 10.0488 3.34171 10.0488 3.14645 9.85356L1.14645 7.85356C0.951184 7.6583 0.951184 7.34172 1.14645 7.14646L3.14645 5.14646C3.34171 4.9512 3.65829 4.9512 3.85355 5.14646ZM11.1464 5.14646C11.3417 4.9512 11.6583 4.9512 11.8536 5.14646L13.8536 7.14646C14.0488 7.34172 14.0488 7.6583 13.8536 7.85356L11.8536 9.85356C11.6583 10.0488 11.3417 10.0488 11.1464 9.85356C10.9512 9.6583 10.9512 9.34172 11.1464 9.14646L12.7929 7.50001L11.1464 5.85356C10.9512 5.6583 10.9512 5.34172 11.1464 5.14646Z" fill="currentColor" fill-rule="evenodd" clip-rule="evenodd"></path></symbol>

<symbol id="cross-1" viewBox="0 0 15 15" fill="none">
  <path
    fill-rule="evenodd"
    clip-rule="evenodd"
    d="M12.8536 2.85355C13.0488 2.65829 13.0488 2.34171 12.8536 2.14645C12.6583 1.95118 12.3417 1.95118 12.1464 2.14645L7.5 6.79289L2.85355 2.14645C2.65829 1.95118 2.34171 1.95118 2.14645 2.14645C1.95118 2.34171 1.95118 2.65829 2.14645 2.85355L6.79289 7.5L2.14645 12.1464C1.95118 12.3417 1.95118 12.6583 2.14645 12.8536C2.34171 13.0488 2.65829 13.0488 2.85355 12.8536L7.5 8.20711L12.1464 12.8536C12.3417 13.0488 12.6583 13.0488 12.8536 12.8536C13.0488 12.6583 13.0488 12.3417 12.8536 12.1464L8.20711 7.5L12.8536 2.85355Z"
    fill="currentColor"
  />
</symbol>

<symbol id="desktop" viewBox="0 0 15 15" fill="none"><path d="M1 3.25C1 3.11193 1.11193 3 1.25 3H13.75C13.8881 3 14 3.11193 14 3.25V10.75C14 10.8881 13.8881 11 13.75 11H1.25C1.11193 11 1 10.8881 1 10.75V3.25ZM1.25 2C0.559643 2 0 2.55964 0 3.25V10.75C0 11.4404 0.559644 12 1.25 12H5.07341L4.82991 13.2986C4.76645 13.6371 5.02612 13.95 5.37049 13.95H9.62951C9.97389 13.95 10.2336 13.6371 10.1701 13.2986L9.92659 12H13.75C14.4404 12 15 11.4404 15 10.75V3.25C15 2.55964 14.4404 2 13.75 2H1.25ZM9.01091 12H5.98909L5.79222 13.05H9.20778L9.01091 12Z" fill="currentColor" fill-rule="evenodd" clip-rule="evenodd"></path></symbol>

<symbol id="exit" viewBox="0 0 15 15" fill="none">
  <path
    fill-rule="evenodd"
    clip-rule="evenodd"
    d="M3 1C2.44771 1 2 1.44772 2 2V13C2 13.5523 2.44772 14 3 14H10.5C10.7761 14 11 13.7761 11 13.5C11 13.2239 10.7761 13 10.5 13H3V2L10.5 2C10.7761 2 11 1.77614 11 1.5C11 1.22386 10.7761 1 10.5 1H3ZM12.6036 4.89645C12.4083 4.70118 12.0917 4.70118 11.8964 4.89645C11.7012 5.09171 11.7012 5.40829 11.8964 5.60355L13.2929 7H6.5C6.22386 7 6 7.22386 6 7.5C6 7.77614 6.22386 8 6.5 8H13.2929L11.8964 9.39645C11.7012 9.59171 11.7012 9.90829 11.8964 10.1036C12.0917 10.2988 12.4083 10.2988 12.6036 10.1036L14.8536 7.85355C15.0488 7.65829 15.0488 7.34171 14.8536 7.14645L12.6036 4.89645Z"
    fill="currentColor"
  />
</symbol>

<symbol id="lock-closed" viewBox="0 0 15 15" fill="none">
  <path
    fill-rule="evenodd"
    clip-rule="evenodd"
    d="M5 4.63601C5 3.76031 5.24219 3.1054 5.64323 2.67357C6.03934 2.24705 6.64582 1.9783 7.5014 1.9783C8.35745 1.9783 8.96306 2.24652 9.35823 2.67208C9.75838 3.10299 10 3.75708 10 4.63325V5.99999H5V4.63601ZM4 5.99999V4.63601C4 3.58148 4.29339 2.65754 4.91049 1.99307C5.53252 1.32329 6.42675 0.978302 7.5014 0.978302C8.57583 0.978302 9.46952 1.32233 10.091 1.99162C10.7076 2.65557 11 3.57896 11 4.63325V5.99999H12C12.5523 5.99999 13 6.44771 13 6.99999V13C13 13.5523 12.5523 14 12 14H3C2.44772 14 2 13.5523 2 13V6.99999C2 6.44771 2.44772 5.99999 3 5.99999H4ZM3 6.99999H12V13H3V6.99999Z"
    fill="currentColor"
  />
</symbol>

<symbol id="lock-open-1" viewBox="0 0 15 15" fill="none">
  <path
    fill-rule="evenodd"
    clip-rule="evenodd"
    d="M7.4986 0C6.3257 0 5.36107 0.38943 4.73753 1.19361C4.23745 1.83856 4 2.68242 4 3.63325H5C5 2.84313 5.19691 2.23312 5.5278 1.80636C5.91615 1.30552 6.55152 1 7.4986 1C8.35683 1 8.96336 1.26502 9.35846 1.68623C9.75793 2.11211 10 2.76044 10 3.63601V6H3C2.44772 6 2 6.44772 2 7V13C2 13.5523 2.44772 14 3 14H12C12.5523 14 13 13.5523 13 13V7C13 6.44771 12.5523 6 12 6H11V3.63601C11 2.58135 10.7065 1.66167 10.0878 1.0021C9.46477 0.337871 8.57061 0 7.4986 0ZM3 7H12V13H3V7Z"
    fill="currentColor"
  />
</symbol>

<symbol id="moon" viewBox="0 0 15 15" fill="none">
  <path
    fill-rule="evenodd"
    clip-rule="evenodd"
    d="M2.89998 0.499976C2.89998 0.279062 2.72089 0.0999756 2.49998 0.0999756C2.27906 0.0999756 2.09998 0.279062 2.09998 0.499976V1.09998H1.49998C1.27906 1.09998 1.09998 1.27906 1.09998 1.49998C1.09998 1.72089 1.27906 1.89998 1.49998 1.89998H2.09998V2.49998C2.09998 2.72089 2.27906 2.89998 2.49998 2.89998C2.72089 2.89998 2.89998 2.72089 2.89998 2.49998V1.89998H3.49998C3.72089 1.89998 3.89998 1.72089 3.89998 1.49998C3.89998 1.27906 3.72089 1.09998 3.49998 1.09998H2.89998V0.499976ZM5.89998 3.49998C5.89998 3.27906 5.72089 3.09998 5.49998 3.09998C5.27906 3.09998 5.09998 3.27906 5.09998 3.49998V4.09998H4.49998C4.27906 4.09998 4.09998 4.27906 4.09998 4.49998C4.09998 4.72089 4.27906 4.89998 4.49998 4.89998H5.09998V5.49998C5.09998 5.72089 5.27906 5.89998 5.49998 5.89998C5.72089 5.89998 5.89998 5.72089 5.89998 5.49998V4.89998H6.49998C6.72089 4.89998 6.89998 4.72089 6.89998 4.49998C6.89998 4.27906 6.72089 4.09998 6.49998 4.09998H5.89998V3.49998ZM1.89998 6.49998C1.89998 6.27906 1.72089 6.09998 1.49998 6.09998C1.27906 6.09998 1.09998 6.27906 1.09998 6.49998V7.09998H0.499976C0.279062 7.09998 0.0999756 7.27906 0.0999756 7.49998C0.0999756 7.72089 0.279062 7.89998 0.499976 7.89998H1.09998V8.49998C1.09998 8.72089 1.27906 8.89997 1.49998 8.89997C1.72089 8.89997 1.89998 8.72089 1.89998 8.49998V7.89998H2.49998C2.72089 7.89998 2.89998 7.72089 2.89998 7.49998C2.89998 7.27906 2.72089 7.09998 2.49998 7.09998H1.89998V6.49998ZM8.54406 0.98184L8.24618 0.941586C8.03275 0.917676 7.90692 1.1655 8.02936 1.34194C8.17013 1.54479 8.29981 1.75592 8.41754 1.97445C8.91878 2.90485 9.20322 3.96932 9.20322 5.10022C9.20322 8.37201 6.82247 11.0878 3.69887 11.6097C3.45736 11.65 3.20988 11.6772 2.96008 11.6906C2.74563 11.702 2.62729 11.9535 2.77721 12.1072C2.84551 12.1773 2.91535 12.2458 2.98667 12.3128L3.05883 12.3795L3.31883 12.6045L3.50684 12.7532L3.62796 12.8433L3.81491 12.9742L3.99079 13.089C4.11175 13.1651 4.23536 13.2375 4.36157 13.3059L4.62496 13.4412L4.88553 13.5607L5.18837 13.6828L5.43169 13.7686C5.56564 13.8128 5.70149 13.8529 5.83857 13.8885C5.94262 13.9155 6.04767 13.9401 6.15405 13.9622C6.27993 13.9883 6.40713 14.0109 6.53544 14.0298L6.85241 14.0685L7.11934 14.0892C7.24637 14.0965 7.37436 14.1002 7.50322 14.1002C11.1483 14.1002 14.1032 11.1453 14.1032 7.50023C14.1032 7.25044 14.0893 7.00389 14.0623 6.76131L14.0255 6.48407C13.991 6.26083 13.9453 6.04129 13.8891 5.82642C13.8213 5.56709 13.7382 5.31398 13.6409 5.06881L13.5279 4.80132L13.4507 4.63542L13.3766 4.48666C13.2178 4.17773 13.0353 3.88295 12.8312 3.60423L12.6782 3.40352L12.4793 3.16432L12.3157 2.98361L12.1961 2.85951L12.0355 2.70246L11.8134 2.50184L11.4925 2.24191L11.2483 2.06498L10.9562 1.87446L10.6346 1.68894L10.3073 1.52378L10.1938 1.47176L9.95488 1.3706L9.67791 1.2669L9.42566 1.1846L9.10075 1.09489L8.83599 1.03486L8.54406 0.98184ZM10.4032 5.30023C10.4032 4.27588 10.2002 3.29829 9.83244 2.40604C11.7623 3.28995 13.1032 5.23862 13.1032 7.50023C13.1032 10.593 10.596 13.1002 7.50322 13.1002C6.63646 13.1002 5.81597 12.9036 5.08355 12.5522C6.5419 12.0941 7.81081 11.2082 8.74322 10.0416C8.87963 10.2284 9.10028 10.3497 9.34928 10.3497C9.76349 10.3497 10.0993 10.0139 10.0993 9.59971C10.0993 9.24256 9.84965 8.94373 9.51535 8.86816C9.57741 8.75165 9.63653 8.63334 9.6926 8.51332C9.88358 8.63163 10.1088 8.69993 10.35 8.69993C11.0403 8.69993 11.6 8.14028 11.6 7.44993C11.6 6.75976 11.0406 6.20024 10.3505 6.19993C10.3853 5.90487 10.4032 5.60464 10.4032 5.30023Z"
    fill="currentColor"
  />
</symbol>



<!-- HeroIcons
<svg xmlns="http://www.w3.org/2000/svg" fill="none" viewBox="0 0 24 24" stroke-width="1.5" stroke="currentColor" class="w-6 h-6">
  <path stroke-linecap="round" stroke-linejoin="round" d="M21.752 15.002A9.718 9.718 0 0118 15.75c-5.385 0-9.75-4.365-9.75-9.75 0-1.33.266-2.597.748-3.752A9.753 9.753 0 003 11.25C3 16.635 7.365 21 12.75 21a9.753 9.753 0 009.002-5.998z" />
</svg> -->
<symbol id="pencil-1" viewBox="0 0 15 15" fill="none">
  <path
    fill-rule="evenodd"
    clip-rule="evenodd"
    d="M11.8536 1.14645C11.6583 0.951184 11.3417 0.951184 11.1465 1.14645L3.71455 8.57836C3.62459 8.66832 3.55263 8.77461 3.50251 8.89155L2.04044 12.303C1.9599 12.491 2.00189 12.709 2.14646 12.8536C2.29103 12.9981 2.50905 13.0401 2.69697 12.9596L6.10847 11.4975C6.2254 11.4474 6.3317 11.3754 6.42166 11.2855L13.8536 3.85355C14.0488 3.65829 14.0488 3.34171 13.8536 3.14645L11.8536 1.14645ZM4.42166 9.28547L11.5 2.20711L12.7929 3.5L5.71455 10.5784L4.21924 11.2192L3.78081 10.7808L4.42166 9.28547Z"
    fill="currentColor"
  />
</symbol>

<symbol id="pencil-2" viewBox="0 0 15 15" fill="none">
  <path
    fill-rule="evenodd"
    clip-rule="evenodd"
    d="M12.1464 1.14645C12.3417 0.951184 12.6583 0.951184 12.8535 1.14645L14.8535 3.14645C15.0488 3.34171 15.0488 3.65829 14.8535 3.85355L10.9109 7.79618C10.8349 7.87218 10.7471 7.93543 10.651 7.9835L6.72359 9.94721C6.53109 10.0435 6.29861 10.0057 6.14643 9.85355C5.99425 9.70137 5.95652 9.46889 6.05277 9.27639L8.01648 5.34897C8.06455 5.25283 8.1278 5.16507 8.2038 5.08907L12.1464 1.14645ZM12.5 2.20711L8.91091 5.79618L7.87266 7.87267L8.12731 8.12732L10.2038 7.08907L13.7929 3.5L12.5 2.20711ZM9.99998 2L8.99998 3H4.9C4.47171 3 4.18056 3.00039 3.95552 3.01877C3.73631 3.03668 3.62421 3.06915 3.54601 3.10899C3.35785 3.20487 3.20487 3.35785 3.10899 3.54601C3.06915 3.62421 3.03669 3.73631 3.01878 3.95552C3.00039 4.18056 3 4.47171 3 4.9V11.1C3 11.5283 3.00039 11.8194 3.01878 12.0445C3.03669 12.2637 3.06915 12.3758 3.10899 12.454C3.20487 12.6422 3.35785 12.7951 3.54601 12.891C3.62421 12.9309 3.73631 12.9633 3.95552 12.9812C4.18056 12.9996 4.47171 13 4.9 13H11.1C11.5283 13 11.8194 12.9996 12.0445 12.9812C12.2637 12.9633 12.3758 12.9309 12.454 12.891C12.6422 12.7951 12.7951 12.6422 12.891 12.454C12.9309 12.3758 12.9633 12.2637 12.9812 12.0445C12.9996 11.8194 13 11.5283 13 11.1V6.99998L14 5.99998V11.1V11.1207C14 11.5231 14 11.8553 13.9779 12.1259C13.9549 12.407 13.9057 12.6653 13.782 12.908C13.5903 13.2843 13.2843 13.5903 12.908 13.782C12.6653 13.9057 12.407 13.9549 12.1259 13.9779C11.8553 14 11.5231 14 11.1207 14H11.1H4.9H4.87934C4.47686 14 4.14468 14 3.87409 13.9779C3.59304 13.9549 3.33469 13.9057 3.09202 13.782C2.7157 13.5903 2.40973 13.2843 2.21799 12.908C2.09434 12.6653 2.04506 12.407 2.0221 12.1259C1.99999 11.8553 1.99999 11.5231 2 11.1207V11.1206V11.1V4.9V4.87935V4.87932V4.87931C1.99999 4.47685 1.99999 4.14468 2.0221 3.87409C2.04506 3.59304 2.09434 3.33469 2.21799 3.09202C2.40973 2.71569 2.7157 2.40973 3.09202 2.21799C3.33469 2.09434 3.59304 2.04506 3.87409 2.0221C4.14468 1.99999 4.47685 1.99999 4.87932 2H4.87935H4.9H9.99998Z"
    fill="currentColor"
  />
</symbol>

<symbol id="plus" viewBox="0 0 15 15" fill="none">
  <path
    fill-rule="evenodd"
    clip-rule="evenodd"
    d="M8 2.75C8 2.47386 7.77614 2.25 7.5 2.25C7.22386 2.25 7 2.47386 7 2.75V7H2.75C2.47386 7 2.25 7.22386 2.25 7.5C2.25 7.77614 2.47386 8 2.75 8H7V12.25C7 12.5261 7.22386 12.75 7.5 12.75C7.77614 12.75 8 12.5261 8 12.25V8H12.25C12.5261 8 12.75 7.77614 12.75 7.5C12.75 7.22386 12.5261 7 12.25 7H8V2.75Z"
    fill="currentColor"
  />
</symbol>

<symbol id="rocket" viewBox="0 0 15 15" fill="none">
<path d="M6.85357 3.85355L7.65355 3.05353C8.2981 2.40901 9.42858 1.96172 10.552 1.80125C11.1056 1.72217 11.6291 1.71725 12.0564 1.78124C12.4987 1.84748 12.7698 1.97696 12.8965 2.10357C13.0231 2.23018 13.1526 2.50125 13.2188 2.94357C13.2828 3.37086 13.2779 3.89439 13.1988 4.44801C13.0383 5.57139 12.591 6.70188 11.9464 7.34645L7.49999 11.7929L6.35354 10.6465C6.15827 10.4512 5.84169 10.4512 5.64643 10.6465C5.45117 10.8417 5.45117 11.1583 5.64643 11.3536L7.14644 12.8536C7.34171 13.0488 7.65829 13.0488 7.85355 12.8536L8.40073 12.3064L9.57124 14.2572C9.65046 14.3893 9.78608 14.4774 9.9389 14.4963C10.0917 14.5151 10.2447 14.4624 10.3535 14.3536L12.3535 12.3536C12.4648 12.2423 12.5172 12.0851 12.495 11.9293L12.0303 8.67679L12.6536 8.05355C13.509 7.19808 14.0117 5.82855 14.1887 4.58943C14.2784 3.9618 14.2891 3.33847 14.2078 2.79546C14.1287 2.26748 13.9519 1.74482 13.6035 1.39645C13.2552 1.04809 12.7325 0.871332 12.2045 0.792264C11.6615 0.710945 11.0382 0.721644 10.4105 0.8113C9.17143 0.988306 7.80189 1.491 6.94644 2.34642L6.32322 2.96968L3.07071 2.50504C2.91492 2.48278 2.75773 2.53517 2.64645 2.64646L0.646451 4.64645C0.537579 4.75533 0.484938 4.90829 0.50375 5.0611C0.522563 5.21391 0.61073 5.34954 0.742757 5.42876L2.69364 6.59928L2.14646 7.14645C2.0527 7.24022 2.00002 7.3674 2.00002 7.50001C2.00002 7.63261 2.0527 7.75979 2.14646 7.85356L3.64647 9.35356C3.84173 9.54883 4.15831 9.54883 4.35357 9.35356C4.54884 9.1583 4.54884 8.84172 4.35357 8.64646L3.20712 7.50001L3.85357 6.85356L6.85357 3.85355ZM10.0993 13.1936L9.12959 11.5775L11.1464 9.56067L11.4697 11.8232L10.0993 13.1936ZM3.42251 5.87041L5.43935 3.85356L3.17678 3.53034L1.80638 4.90074L3.42251 5.87041ZM2.35356 10.3535C2.54882 10.1583 2.54882 9.8417 2.35356 9.64644C2.1583 9.45118 1.84171 9.45118 1.64645 9.64644L0.646451 10.6464C0.451188 10.8417 0.451188 11.1583 0.646451 11.3535C0.841713 11.5488 1.1583 11.5488 1.35356 11.3535L2.35356 10.3535ZM3.85358 11.8536C4.04884 11.6583 4.04885 11.3417 3.85359 11.1465C3.65833 10.9512 3.34175 10.9512 3.14648 11.1465L1.14645 13.1464C0.95119 13.3417 0.951187 13.6583 1.14645 13.8535C1.34171 14.0488 1.65829 14.0488 1.85355 13.8536L3.85358 11.8536ZM5.35356 13.3535C5.54882 13.1583 5.54882 12.8417 5.35356 12.6464C5.1583 12.4512 4.84171 12.4512 4.64645 12.6464L3.64645 13.6464C3.45119 13.8417 3.45119 14.1583 3.64645 14.3535C3.84171 14.5488 4.1583 14.5488 4.35356 14.3535L5.35356 13.3535ZM9.49997 6.74881C10.1897 6.74881 10.7488 6.1897 10.7488 5.5C10.7488 4.8103 10.1897 4.25118 9.49997 4.25118C8.81026 4.25118 8.25115 4.8103 8.25115 5.5C8.25115 6.1897 8.81026 6.74881 9.49997 6.74881Z" fill="currentColor" fill-rule="evenodd" clip-rule="evenodd"></path>
</symbol>

<symbol id="sun" viewBox="0 0 15 15" fill="none">
  <path
    fill-rule="evenodd"
    clip-rule="evenodd"
    d="M7.5 0C7.77614 0 8 0.223858 8 0.5V2.5C8 2.77614 7.77614 3 7.5 3C7.22386 3 7 2.77614 7 2.5V0.5C7 0.223858 7.22386 0 7.5 0ZM2.1967 2.1967C2.39196 2.00144 2.70854 2.00144 2.90381 2.1967L4.31802 3.61091C4.51328 3.80617 4.51328 4.12276 4.31802 4.31802C4.12276 4.51328 3.80617 4.51328 3.61091 4.31802L2.1967 2.90381C2.00144 2.70854 2.00144 2.39196 2.1967 2.1967ZM0.5 7C0.223858 7 0 7.22386 0 7.5C0 7.77614 0.223858 8 0.5 8H2.5C2.77614 8 3 7.77614 3 7.5C3 7.22386 2.77614 7 2.5 7H0.5ZM2.1967 12.8033C2.00144 12.608 2.00144 12.2915 2.1967 12.0962L3.61091 10.682C3.80617 10.4867 4.12276 10.4867 4.31802 10.682C4.51328 10.8772 4.51328 11.1938 4.31802 11.3891L2.90381 12.8033C2.70854 12.9986 2.39196 12.9986 2.1967 12.8033ZM12.5 7C12.2239 7 12 7.22386 12 7.5C12 7.77614 12.2239 8 12.5 8H14.5C14.7761 8 15 7.77614 15 7.5C15 7.22386 14.7761 7 14.5 7H12.5ZM10.682 4.31802C10.4867 4.12276 10.4867 3.80617 10.682 3.61091L12.0962 2.1967C12.2915 2.00144 12.608 2.00144 12.8033 2.1967C12.9986 2.39196 12.9986 2.70854 12.8033 2.90381L11.3891 4.31802C11.1938 4.51328 10.8772 4.51328 10.682 4.31802ZM8 12.5C8 12.2239 7.77614 12 7.5 12C7.22386 12 7 12.2239 7 12.5V14.5C7 14.7761 7.22386 15 7.5 15C7.77614 15 8 14.7761 8 14.5V12.5ZM10.682 10.682C10.8772 10.4867 11.1938 10.4867 11.3891 10.682L12.8033 12.0962C12.9986 12.2915 12.9986 12.608 12.8033 12.8033C12.608 12.9986 12.2915 12.9986 12.0962 12.8033L10.682 11.3891C10.4867 11.1938 10.4867 10.8772 10.682 10.682ZM5.5 7.5C5.5 6.39543 6.39543 5.5 7.5 5.5C8.60457 5.5 9.5 6.39543 9.5 7.5C9.5 8.60457 8.60457 9.5 7.5 9.5C6.39543 9.5 5.5 8.60457 5.5 7.5ZM7.5 4.5C5.84315 4.5 4.5 5.84315 4.5 7.5C4.5 9.15685 5.84315 10.5 7.5 10.5C9.15685 10.5 10.5 9.15685 10.5 7.5C10.5 5.84315 9.15685 4.5 7.5 4.5Z"
    fill="currentColor"
  />
</symbol>



<!-- HeroIcons
<svg xmlns="http://www.w3.org/2000/svg" fill="none" viewBox="0 0 24 24" stroke-width="1.5" stroke="currentColor" class="w-6 h-6">
  <path stroke-linecap="round" stroke-linejoin="round" d="M12 3v2.25m6.364.386l-1.591 1.591M21 12h-2.25m-.386 6.364l-1.591-1.591M12 18.75V21m-4.773-4.227l-1.591 1.591M5.25 12H3m4.227-4.773L5.636 5.636M15.75 12a3.75 3.75 0 11-7.5 0 3.75 3.75 0 017.5 0z" />
</svg> -->
<symbol id="trash" viewBox="0 0 15 15" fill="none">
  <path
    fill-rule="evenodd"
    clip-rule="evenodd"
    d="M5.5 1C5.22386 1 5 1.22386 5 1.5C5 1.77614 5.22386 2 5.5 2H9.5C9.77614 2 10 1.77614 10 1.5C10 1.22386 9.77614 1 9.5 1H5.5ZM3 3.5C3 3.22386 3.22386 3 3.5 3H5H10H11.5C11.7761 3 12 3.22386 12 3.5C12 3.77614 11.7761 4 11.5 4H11V12C11 12.5523 10.5523 13 10 13H5C4.44772 13 4 12.5523 4 12V4L3.5 4C3.22386 4 3 3.77614 3 3.5ZM5 4H10V12H5V4Z"
    fill="currentColor"
  />
</symbol>

<symbol id="x-mark" fill="none" viewBox="0 0 24 24" stroke-width="1.5" stroke="currentColor" class="w-6 h-6">
  <path stroke-linecap="round" stroke-linejoin="round" d="M6 18L18 6M6 6l12 12" />
</symbol>

</svg>
